<?xml version="1.0" encoding="utf-8"?>
<!-- Generator: Adobe Illustrator 24.3.0, SVG Export Plug-In . SVG Version: 6.00 Build 0)  -->
<svg version="1.1" id="Camada_1" xmlns="http://www.w3.org/2000/svg" xmlns:xlink="http://www.w3.org/1999/xlink" x="0px" y="0px"
	 viewBox="0 0 475.3999939 432.7058716" style="enable-background:new 0 0 475.3999939 432.7058716;" xml:space="preserve">
<style type="text/css">
	.st0{opacity:0.71;fill:#CBFFAC;}
	.st1{fill:#7AC01F;}
	.st2{opacity:0.71;fill:#7AC01F;}
	.st3{opacity:0.71;fill:#D8FF94;}
	.st4{fill:#DFFFAC;}
	.st5{fill:#FEFFDE;}
	.st6{fill:#FFFFFF;}
	.st7{opacity:0.35;fill:#A7FF0C;}
	.st8{fill:#562B00;stroke:#562B00;stroke-width:0.6458218;stroke-miterlimit:10;}
	.st9{fill:#562B00;}
</style>
<g>
	<path class="st0" d="M228.9921722,53.7480736c0,0-130.3537903,58.8796883-96.9471741,169.222702
		s155.3582306,55.8083649,177.1562347,15.1848297c22.2710571-41.5051727,10.1231995-102.2444611-23.2834167-108.3183899
		C252.5112305,123.763298,211.7827148,87.1546783,228.9921722,53.7480736z"/>
	<path class="st1" d="M127.0311356,48.8927879c0,0,32.044899,0.9710579,35.9291306,25.2474937
		s-1.9421082,21.363266-1.9421082,21.363266S115.3784485,93.5614319,127.0311356,48.8927879z"/>
	<path class="st1" d="M368.0849915,274.3460388c0,0-17.6351929,26.7734985-40.3413696,17.3468323
		c-22.7062073-9.4266357-17.1698608-12.8591003-17.1698608-12.8591003S336.1665344,240.9951019,368.0849915,274.3460388z"/>
	<path class="st1" d="M154.5456238,271.6893005c0,0,14.1919556,20.0462036,1.1371002,33.6231384
		c-13.0548553,13.5769043-13.9615479,8.6694336-13.9615479,8.6694336S121.8503418,285.1732483,154.5456238,271.6893005z"/>
	<path class="st2" d="M231.334259,57.694416l16.108017-6.8595161c0,0-6.7974091-27.1896076,2.9131622-26.2185516
		c9.7105713,0.9710579,102.0922852-4.4425507,113.613739,60.2055664
		C381.4482117,182.8987274,199.8604584,159.593338,231.334259,57.694416z"/>
	<path class="st3" d="M236.7606354,54.7191315c0,0-120.4111328,60.2055664-88.3662262,166.0508423
		s149.0255737,53.533493,169.9350586,14.5658569c21.3632507-39.8133545,9.7105713-98.0768127-22.3343201-103.9031525
		C263.9502563,125.6063309,220.252655,86.7640305,236.7606354,54.7191315z"/>
	<circle class="st4" cx="316.3873596" cy="81.9087448" r="34.9580688"/>
	<circle class="st5" cx="324.1558228" cy="76.0823975" r="16.5079784"/>
	<circle class="st6" cx="332.40979" cy="75.5968704" r="8.2539892"/>
	<path class="st7" d="M233.8492737,150.9693604c0,0-83.0338745,25.3630829-64.2343445,115.0001221
		c0,0,34.408905,69.8362732,112.9281311,4.1441956c43.5135803-39.3694611,35.2252502-113.9641418-9.3243408-119.1443176
		C249.3898315,146.8251953,233.8492737,150.9693604,233.8492737,150.9693604z"/>
	<g id="Desenho">
		<g>
			<path class="st8" d="M234.0972748,291.2253113c-47.7894592,0-71.4208679-25.7428284-82.829422-47.3388824
				c-12.2055054-23.1023254-13.1959076-45.8987732-13.2322845-46.8577576l-0.0032959-0.1752625
				c0-56.9096832,29.4621735-93.0905075,54.1774139-113.4208908c21.5200043-17.7022705,42.8250732-26.6034279,50.7945251-29.5514641
				V38.9002953c-0.1686401-1.5847969-0.3587799-6.2540398,2.6305847-9.7005787
				c1.3177643-1.5194893,3.7408447-3.3308029,7.8041077-3.3308029c5.4587402,0,33.2212219,2.5743656,59.5874023,14.4681988
				c36.1080627,16.2877808,55.1934204,43.3582993,55.1934204,78.2841949v0.9697266l-0.3893738,0.88871
				c-0.954834,2.1833344-10.7174377,21.3298721-58.7400208,21.3298721c-41.3265381,0-58.903717-20.9084854-62.8674774-34.7654343
				c-0.8354797-2.9207458,1.4267426-5.8134842,4.4646454-5.8134842l0,0c2.0837555,0,3.8786163,1.3949356,4.446106,3.39991
				c2.8093872,9.9256973,17.1540833,27.9033432,53.9567261,27.9033432c37.2018127,0,47.815094-12.1550674,49.8454895-15.1237717
				c-0.4249268-30.8427887-17.1492004-53.9244461-49.723938-68.6183319
				c-24.9946594-11.2754555-51.5749512-13.6472778-55.7729797-13.6472778c-0.519165,0-0.7646942,0.0950699-0.7961121,0.130619
				c-0.3273773,0.3695374-0.5274353,1.7245102-0.4034271,2.7347488l0.0404968,0.612587v21.9532051l-3.2464752,1.0209846
				c-0.2529755,0.0801888-25.9271851,8.3472595-51.182251,29.2050781
				c-33.5113983,27.6781464-50.5167542,63.3216248-50.5432129,105.947464
				c0.0694427,1.3822479,1.3136292,22.4368286,12.306366,43.0788727
				c14.883194,27.9501343,39.943161,42.1215515,74.4829865,42.1215515c44.2379303,0,69.2672882-34.0024567,71.1273956-67.591568
				c1.388031-25.0566559-10.8017578-51.849411-41.1642151-55.2232056
				c-16.9797516-1.8807526-30.6228943,3.385376-38.4179077,14.8435211
				c-7.1915283,10.571106-8.2290497,24.8433838-2.5818176,35.5145111
				c4.5039063,8.5109558,12.6320953,13.1983795,22.8882141,13.1983795c16.6225891,0,22.2590942-8.8193054,24.1390076-14.0771637
				c2.6818542-7.4998932,0.8217468-16.3398743-4.3269653-20.5626831c-3.6253052-2.9742889-8.3693542-3.2718811-13.8646698-0.9127808
				c-2.1224976,0.9111786-4.5965118,0.1144257-5.7848969-1.8662109l-0.0000153-0.0000153
				c-1.4359589-2.3932495-0.4561768-5.5441589,2.1122284-6.6363831c8.7259521-3.7106934,17.0698242-2.9644623,23.4193726,2.2436981
				c8.1604309,6.6930237,11.1795654,19.6706696,7.1782837,30.857666
				c-4.5973206,12.8561249-16.5787659,20.2295227-32.872345,20.2295227c-13.657196,0-24.9872131-6.6103516-31.0866547-18.1362915
				c-7.2097168-13.6241302-5.9589081-31.7364655,3.1117249-45.0695953
				c5.6877441-8.3604889,19.384613-21.9341888,47.110733-18.8439484
				c36.3874817,4.0425873,51.0301208,35.5359955,49.4006958,64.954361
				C312.3839417,252.8140411,284.0965271,291.2253113,234.0972748,291.2253113z"/>
		</g>
		<g>
			<path class="st9" d="M308.5932922,119.4692307c-20.8132629,0-37.7460632-16.9328079-37.7460632-37.7465363
				c0-20.8132553,16.9328003-37.7460709,37.7460632-37.7460709s37.7460632,16.9328156,37.7460632,37.7460709
				C346.3393555,102.5364227,329.4065552,119.4692307,308.5932922,119.4692307z M308.5932922,51.7450867
				c-16.5297852,0-29.9776001,13.4478149-29.9776001,29.9776077s13.4478149,29.9780807,29.9776001,29.9780807
				s29.9776001-13.4482956,29.9776001-29.9780807S325.1230774,51.7450867,308.5932922,51.7450867z"/>
		</g>
		<g>
			<path class="st9" d="M331.4757385,94.3089828c-7.0088806,0-12.7109985-5.7021179-12.7109985-12.7105179
				c0-7.008873,5.7021179-12.7109909,12.7109985-12.7109909c7.0079041,0,12.710022,5.7021179,12.710022,12.7109909
				C344.1857605,88.6068649,338.4836426,94.3089828,331.4757385,94.3089828z M331.4757385,75.6848755
				c-3.2612,0-5.9136047,2.6528625-5.9136047,5.9135895s2.6524048,5.9131165,5.9136047,5.9131165
				c3.2602539,0,5.9126282-2.6523895,5.9126282-5.9131165S334.7359924,75.6848755,331.4757385,75.6848755z"/>
		</g>
		<g>
			<path class="st8" d="M321.5404053,104.343399c-12.5412598,0-22.7449341-10.2032166-22.7449341-22.7449341
				s10.2036743-22.7449341,22.7449341-22.7449341s22.7449341,10.2032166,22.7449341,22.7449341
				S334.081665,104.343399,321.5404053,104.343399z M321.5404053,63.7088165
				c-9.8641968,0-17.8896484,8.0254517-17.8896484,17.8896484s8.0254517,17.8896484,17.8896484,17.8896484
				s17.8896484-8.0254517,17.8896484-17.8896484S331.4046021,63.7088165,321.5404053,63.7088165z"/>
		</g>
		<g>
			<path class="st9" d="M93.4810257,397.3430786c-6.1407776,0-11.6664886-0.8729858-16.5771255-2.618988
				c-4.9106369-1.7476807-9.1152725-4.4873657-12.6089325-8.2174683c-3.4953194-3.731781-6.1870766-8.5481567-8.0752754-14.4525146
				c-1.8915062-5.9010315-2.8339539-13.0570068-2.8339539-21.4645996v-29.6109924
				c0-6.421875,0.9920502-11.4779968,2.9761467-15.1618042c1.8881989-3.4920349,4.7684441-5.9953003,8.6407394-7.5081482
				c2.268486-0.9441223,4.9602432-1.5591736,8.0769272-1.8419189c1.9824448-0.2827454,4.1798325-0.4480591,6.5888596-0.4960327
				c2.4073639-0.0462952,4.4625626-0.0710754,6.1622696-0.0710754c4.9106369,0,9.1615677,0.6878052,12.7511292,2.0551758
				c3.5895615,1.370697,6.5888519,3.1877747,8.997879,5.4546204c2.4073715,2.2668152,4.2013245,4.8659973,5.3835144,7.7925415
				c1.180542,2.9281921,1.7708054,6.0002441,1.7708054,9.2078552c0,3.0257568-0.5671158,5.8348999-1.699707,8.4324036
				c-1.1342392,2.5975342-2.7413635,4.9817505-4.8180466,7.1526794c2.8339539,1.0416565,5.4546127,2.410675,7.8636322,4.1103821
				c2.4090271,1.699707,4.5088654,3.7532654,6.3044739,6.1622925c1.7939529,2.4090271,3.2109299,5.171875,4.2509232,8.2885437
				c1.0383453,3.1183472,1.5591736,6.5673828,1.5591736,10.3437805c0,4.2492676-0.8283615,8.3117065-2.4801254,12.1839905
				c-1.6534119,3.8739624-3.9913406,7.3196716-7.0137787,10.3421021c-3.0240936,3.0241089-6.6583023,5.433136-10.9092255,7.2254333
				C103.5403976,396.445282,98.7703018,397.3430786,93.4810257,397.3430786z M93.4810257,383.3171692
				c3.0224457,0,5.619957-0.4943542,7.7925415-1.4864197c2.1725845-0.9920349,3.9433899-2.3147583,5.3140717-3.9682007
				c1.3673782-1.6500854,2.3594208-3.5878906,2.9744949-5.8084412c0.6134186-2.2172241,0.9209518-4.6047363,0.9209518-7.1542969
				c0-4.1567078-0.7076645-7.5809021-2.1246414-10.2726746c-1.4169693-2.6917725-3.237381-4.7684326-5.4546127-6.2350159
				c-2.2205353-1.4616394-4.6758499-2.4784851-7.3676071-3.0455933c-2.6917572-0.5654602-5.2661285-0.8002625-7.7214432-0.7076721
				c-2.2668304,0.0959167-4.416275,0.1422119-6.4466629,0.1422119c-2.0320435,0-3.8491516,0-5.4546127,0
				c-1.7956085,0-3.4969711-0.0462952-5.1007843-0.1422119v6.0911865
				c-0.1901398,6.3292542,0.1884918,11.5970459,1.1342468,15.7983704c0.9424438,4.2046204,2.4073639,7.5346069,4.3914642,9.9882813
				c1.9841003,2.4569702,4.4146118,4.2029724,7.2965164,5.2413025
				C86.5151978,382.7996521,89.7972183,383.3171692,93.4810257,383.3171692z M70.8127213,333.0203247h12.0434723
				c5.1007767,0,9.0888138-0.9424438,11.9707108-2.8323059c2.880249-1.8881836,4.3220291-5.102417,4.3220291-9.6360779
				c0-2.2651978-0.4034348-4.1798401-1.2036896-5.7373657c-0.8035583-1.5575256-1.8419037-2.8339539-3.1183395-3.8259888
				c-1.2747803-0.9920654-2.7149048-1.7228699-4.3203659-2.1957397c-1.6071167-0.4712219-3.1662903-0.7076721-4.6758575-0.7076721
				c-1.1325912,0-2.5512161,0-4.2509232,0c-1.6997147,0-3.3531265,0.2116394-4.9569397,0.6382141
				c-1.6087723,0.4232788-2.9761429,1.1111145-4.1103821,2.0535583c-1.1342468,0.9457397-1.6997147,2.361084-1.6997147,4.2492676
				V333.0203247z"/>
			<path class="st9" d="M166.7305756,383.0344543c-0.4728699,0.6613464-1.2747803,1.2036743-2.4090271,1.630249
				c-1.1325836,0.4232788-2.2668304,0.5423279-3.3994141,0.3538208c-1.1342468-0.1884766-2.126297-0.7803955-2.9761505-1.7724304
				c-0.8498535-0.9920654-1.2747803-2.6206665-1.2747803-4.8875122v-33.861908c0-2.8339539,0.0214996-5.1222839,0.0710907-6.871582
				c0.0462952-1.7460022,0.1174011-3.1381836,0.2116394-4.1798401c0.0942535-1.1342468,0.1884918-2.0303955,0.2843933-2.6917725
				c-5.8580475,0-10.2958069,1.2284851-13.3182526,3.6838074c-3.0240936,2.4569702-4.5336609,6.5177612-4.5336609,12.1856689
				l-0.1421967,33.4353333c0,2.3627319,0.3538361,4.6295776,1.0631561,6.8021545
				c0.7076569,2.1725769,1.7922974,4.060791,3.2588654,5.6662598c1.4632721,1.6071167,3.2803802,2.8587341,5.4546204,3.7548828
				c2.170929,0.8961487,4.7221527,1.2037048,7.6503448,0.9209595c3.0224457-0.190155,5.242981-1.0631409,6.6582947-2.6206665
				c1.4169769-1.5591736,2.361084-3.1877747,2.8339539-4.8874817
				C166.7305756,387.7102966,166.9190674,385.4914246,166.7305756,383.0344543z"/>
			<path class="st9" d="M227.2273407,339.395874c2.9265442,3.0241089,5.2181702,6.5888672,6.871582,10.6976013
				c1.6517639,4.1087341,2.4801331,8.5249939,2.4801331,13.2471619c0,4.7237854-0.7572784,9.1383972-2.2668304,13.2471313
				c-1.5128784,4.1087341-3.6375122,7.6751709-6.3755646,10.6959534c-2.7413635,3.1183472-6.0713501,5.5753174-9.9899292,7.3676147
				c-3.9202423,1.7939453-8.286911,2.6917419-13.1049652,2.6917419c-4.3451691,0-8.4291077-0.8977966-12.2550964-2.6917419
				c-3.826004-1.7922974-7.2039337-4.2492676-10.1304779-7.3676147c-2.8339539-3.0207825-5.0776367-6.5872192-6.7293854-10.6959534
				c-1.6534271-4.1087341-2.4801331-8.5233459-2.4801331-13.2471313c0-4.722168,0.7308197-9.1384277,2.1957397-13.2471619
				c1.4632721-4.1087341,3.5647583-7.6734924,6.3061218-10.6976013c2.7380524-3.1166687,6.0680237-5.571991,9.988266-7.3659363
				c3.9185944-1.7939758,8.2885742-2.6934204,13.1049652-2.6934204c4.4394226,0,8.5713043,0.8994446,12.3972931,2.6934204
				C221.0650635,333.8238831,224.3933868,336.2792053,227.2273407,339.395874z M204.8417664,385.1590881
				c1.2268372,0,2.6686096-0.2827454,4.3220215-0.8498535c1.650116-0.5671387,3.2340851-1.6517639,4.7453003-3.2588806
				c1.5095673-1.6038208,2.7860107-3.8260193,3.826004-6.6582947c1.0383453-2.8339539,1.5591736-6.5177612,1.5591736-11.0514221
				s-0.5208282-8.2389832-1.5591736-11.1225281c-1.0399933-2.880249-2.3164368-5.0991211-3.826004-6.6582947
				c-1.5112152-1.5591736-3.0951843-2.6206665-4.7453003-3.1894226c-1.6534119-0.5654907-3.0951843-0.8498535-4.3220215-0.8498535
				c-1.2284851,0-2.6702576,0.2843628-4.3203735,0.8498535c-1.6550598,0.5687561-3.237381,1.630249-4.7469482,3.1894226
				c-1.5128784,1.5591736-2.7876587,3.7780457-3.826004,6.6582947c-1.0399933,2.8835449-1.5575104,6.5888672-1.5575104,11.1225281
				s0.5175171,8.2174683,1.5575104,11.0514221c1.0383453,2.8322754,2.3131256,5.0544739,3.826004,6.6582947
				c1.5095673,1.6071167,3.0918884,2.6917419,4.7469482,3.2588806
				C202.1715088,384.8763428,203.6132813,385.1590881,204.8417664,385.1590881z"/>
			<path class="st9" d="M335.7557678,360.0817566c0-3.9682007-0.4034119-7.1559753-1.2036743-9.5633545
				c-0.8035583-2.4090271-1.8666992-4.2972107-3.1877747-5.6679077c-1.3244019-1.3673706-2.7876587-2.2883301-4.3931274-2.7612
				c-1.6071167-0.4728699-3.2109375-0.7093201-4.8164063-0.7093201c-1.6071167,0-3.1877747,0.2364502-4.7469482,0.7093201
				c-1.5574951,0.4728699-2.9744873,1.3938293-4.2509155,2.7612c-1.2747803,1.370697-2.3147888,3.2588806-3.1166992,5.6679077
				c-0.8035583,2.4073792-1.2036743,5.5951538-1.2036743,9.5633545v21.9606323c0,2.8339539,0.0462952,5.1487427,0.1421814,6.942688
				c0.0925903,1.7939453,0.1868591,3.2125854,0.2827454,4.2509155c0.0925903,1.1325989,0.1884766,1.9824524,0.2827454,2.5495911
				c-5.8564148,0-10.3421021-1.2268372-13.4588013-3.6838074c-3.1166992-2.4553223-4.6758423-6.4681702-4.6758423-12.0434875
				l0.1421814-19.976532c0-3.9682007-0.4034424-7.1559753-1.2053528-9.5633545
				c-0.8035583-2.4090271-1.8650513-4.2972107-3.1877747-5.6679077c-1.3227234-1.3673706-2.7860107-2.2883301-4.391449-2.7612
				c-1.6071167-0.4728699-3.2125854-0.7093201-4.8180542-0.7093201c-1.6071167,0-3.1877747,0.2364502-4.7453003,0.7093201
				c-1.5591736,0.4728699-2.9761353,1.3938293-4.250946,2.7612c-1.2747803,1.370697-2.291626,3.2588806-3.0455627,5.6679077
				c-0.7572632,2.4073792-1.1342468,5.5951538-1.1342468,9.5633545v21.9606323c0,2.8339539,0.0231323,5.1487427,0.0710754,6.942688
				c0.0462952,1.7939453,0.1174011,3.2125854,0.2133179,4.2509155c0.0925903,1.1325989,0.1868286,1.9824524,0.2827148,2.5495911
				c-5.8580322,0-10.3421021-1.2268372-13.460434-3.6838074c-3.116684-2.4553223-4.6742096-6.4681702-4.6742096-12.0434875
				l0.1405487-19.976532c0-6.3259583,0.9209442-11.4978638,2.7628479-15.5139771
				c1.8419037-4.0128479,4.2261353-7.1543274,7.1559906-9.422821c2.9265442-2.2651672,6.2085571-3.79953,9.8460693-4.6031189
				c3.6358643-0.8018799,7.2485657-1.2053223,10.8381348-1.2053223c3.9682007,0,7.8867798,0.4745178,11.7607117,1.4169617
				c3.8706665,0.9457703,7.3180237,2.7413635,10.3421326,5.3835144c3.0224304-2.6421509,6.4681396-4.4377441,10.34375-5.3835144
				c3.870636-0.9424438,7.7908936-1.4169617,11.7590637-1.4169617c3.5879211,0,7.2254333,0.4034424,10.9092407,1.2053223
				c3.6838074,0.8035889,7.0137634,2.3379517,9.9882813,4.6031189c2.9761353,2.2684937,5.3835144,5.4099731,7.2254028,9.422821
				c1.8419189,4.0161133,2.7628479,9.1880188,2.7628479,15.5139771v30.631134
				c0.3293457,9.2939148,3.5238953,12.301239,7.336853,14.0116272c1.2580872,0.5643616,1.1025085,2.4248047-0.2414246,2.7332458
				c-7.7662964,1.7824707-24.5223999-0.0702515-24.5223999-17.2409058L335.7557678,360.0817566z"/>
			<path class="st9" d="M372.5921936,359.6568298c2.5495605-1.6054688,5.4298096-2.8091736,8.642395-3.6127319
				c3.209259-0.8018799,6.5640564-1.2036743,10.0593567-1.2036743c4.9106445,0,9.5865173,0.7076721,14.0259094,2.1246338
				c-0.2827148-2.9265442-0.8977966-5.5256958-1.8418884-7.7925415c-1.2284851-2.9265442-3.0704041-5.0528259-5.5257263-6.3755493
				c-0.9440918-0.4728699-1.9609375-0.8267212-3.0455627-1.0631409c-1.0863037-0.2348022-2.3379517-0.3538513-3.7549133-0.3538513
				h-1.5575256c-1.3243713,0.0942383-2.6454468,0.3075562-3.9682007,0.6365662
				c-1.3227234,0.3339844-2.6454468,0.7341309-3.9665222,1.2053528c-1.3244019,0.4745178-2.6454773,0.8746643-3.9665527,1.2036743
				c-1.3243713,0.3323364-2.5991516,0.4960327-3.8259888,0.4960327c-1.3244019,0-2.5991821-0.2827454-3.8259888-0.8498535
				c-1.1325989-0.659729-2.1246643-1.7476501-2.9745178-3.2588806l-0.2827148-0.5654602l0.2827148-0.4266052
				c2.8339539-3.0224304,6.1639404-5.4545898,9.9882813-7.2948608c3.8260193-1.8418884,8.0058289-2.9066772,12.5394897-3.1894226
				c0.4712219-0.0925903,0.8713684-0.1405334,1.2037048-0.1405334c0.330658,0,0.7308044,0,1.2036743,0
				c4.3435059,0,8.3117065,0.7787476,11.9012756,2.3379211c3.5895691,1.5575256,6.7062378,3.7069397,9.3517151,6.4450073
				c5.3835144,5.8580322,8.1695251,13.5546875,8.3596497,23.0948792v1.1342468
				c0,9.824585-2.5049133,17.8039551-7.5097961,23.9430847c-2.4569702,3.0241089-5.4083252,5.4794312-8.8540344,7.3676147
				c-3.4506836,1.8898621-7.2981873,3.0670776-11.5474548,3.541626c-0.5671082,0.0942383-1.1342468,0.1421814-1.701355,0.1421814
				c-0.5654602,0-1.1821899,0-1.8419189,0c-1.9824219,0-4.0607605-0.1669922-6.2333679-0.4960327
				c-2.1742249-0.3323364-4.2988586-0.9672241-6.3755493-1.9129944c-2.1742554-0.8498535-4.1566772-1.9592896-5.9506531-3.3299866
				c-1.7955933-1.3673706-3.3068237-3.1381531-4.5336609-5.3124084c-1.7955933-2.7380371-2.741333-6.0928345-2.8339539-10.0593567
				v-0.8498535c0-3.6838074,0.7556152-6.7525635,2.2668457-9.2095337
				C367.8220825,363.5770569,369.8508301,361.4524231,372.5921936,359.6568298z M401.9204407,366.4573059
				c-1.2284851-0.1884766-2.6206665-0.3769836-4.1798096-0.5654602c-1.5591736-0.1884766-3.14151-0.2843933-4.7469788-0.2843933
				c-1.3227234,0-2.5991516,0.071106-3.8243408,0.2116394c-1.2284851,0.1422119-2.3627319,0.4034424-3.401062,0.780426
				c-2.3627319,0.7572632-4.1566772,1.9378052-5.3835144,3.5415955c-0.4745483,0.5671387-0.8498535,1.2037048-1.1342468,1.9129944
				c-0.2827454,0.7093201-0.4728699,1.4864197-0.5654602,2.3379517c-0.0959167,0.2827148-0.1422119,0.7076416-0.1422119,1.2747803
				c0,0.9457397,0.1422119,1.9609375,0.4249268,3.0455627c0.2827454,1.0879517,0.8498535,2.1031494,1.699707,3.0455933
				c0.7556152,0.9457703,1.8650513,1.7493286,3.3299866,2.410675c1.4632874,0.661377,3.4225769,0.9904175,5.8795471,0.9904175
				c0.7556152,0,1.3210754-0.0462952,1.699707-0.140564c2.6437988-0.0925903,4.9602356-0.8498535,6.942688-2.2684631
				c0.9440918-0.5654602,1.7476501-1.25,2.4090271-2.0535583c0.6596985-0.8002319,1.2268372-1.6765442,1.699707-2.6223145
				c1.0383301-1.7922974,1.7476501-3.6341858,2.1262817-5.5240479c0.3753357-1.8898621,0.5654602-3.6358643,0.5654602-5.242981
				c-0.0942383,0-0.1653442-0.0214844-0.2116394-0.0694275c-0.0495911-0.0462952-0.1190186-0.0727539-0.2132874-0.0727539
				c-0.3786316-0.0925903-0.8035583-0.1885071-1.2747803-0.2827454
				C403.1472778,366.7896423,402.5801697,366.6474609,401.9204407,366.4573059z"/>
		</g>
		<g>
			<path class="st9" d="M140.0454712,325.8504944c-0.8207855,0-1.6515808-0.2202148-2.4051514-0.6763611l-2.1820679-1.3226929
				l3.1773071-3.815033c-0.2931366-1.9075317-0.4304199-3.9880981-0.4189758-6.3274536
				c0.0557709-10.7702332,4.3112335-19.0852661,11.9828186-23.4136658
				c5.1420288-2.8999023,11.6110382-4.5543518,17.7897644-4.5543518c0.091507,0,0.1815948,0.0014343,0.2731171,0.0014343
				c1.568634,0.0128784,2.9385071,1.1368103,3.2573853,2.6739807c1.5786438,7.597229,1.1324921,18.3960571-4.8574829,25.913208
				c-5.0362091,5.9685059-13.5971985,9.6019592-23.0890808,9.8693542
				C142.6622314,325.2799683,141.3667145,325.8504944,140.0454712,325.8504944z M165.624054,292.3343506
				c-0.9394531,0.0943909-1.9489899,0.2373657-3.0471802,0.4304199c-6.1801605,1.0895996-14.1019745,4.155365-16.7459106,12.5733643
				c-1.1582489,3.6892395-1.5157318,8.0447998-1.0166779,12.3274536c7.2011261-0.5505371,13.3169403-3.2402344,16.8531494-7.431366
				C165.0377808,306.0044861,166.4820099,299.4039307,165.624054,292.3343506z"/>
			<path class="st9" d="M140.045578,326.214386c-0.9089355,0-1.8060303-0.2522278-2.5940704-0.7282715l-2.543808-1.5429077
				l3.3432312-4.0141296c-0.2797546-1.8852234-0.410141-3.9221497-0.3982849-6.2218018
				c0.055954-10.9063721,4.3773499-19.3338928,12.1680908-23.728302c5.1852875-2.9245605,11.7347107-4.6021118,17.9683533-4.6021118
				l0.2731171,0.0009766c1.7424927,0.0151672,3.2612,1.2612305,3.6139526,2.9643555
				c1.595993,7.6793213,1.139389,18.598999-4.928772,26.2138367c-5.0340424,5.9666748-13.6967468,9.6963501-23.2039185,10.0026245
				C142.7947083,325.6131897,141.4566498,326.214386,140.045578,326.214386z M136.0086823,323.7592468l1.8202515,1.1038208
				c0.6742401,0.4077759,1.4404755,0.6230469,2.2166443,0.6230469c1.2503357,0,2.4347687-0.5547791,3.2493439-1.5210876
				l0.1047974-0.1251831l0.1631012-0.0047302c9.3658752-0.2636108,17.8972321-3.9050903,22.8212738-9.7409058
				c5.9045868-7.4100037,6.3412781-18.085968,4.7789459-25.6040649c-0.2840118-1.3693542-1.5049438-2.3726501-2.9036865-2.3840332
				l-0.2702637-0.000946c-6.1122589,0-12.5308075,1.6434021-17.6108398,4.5072632
				c-7.5527344,4.2616577-11.7423096,12.464447-11.7973175,23.0986633c-0.0118408,2.3271179,0.123764,4.3782959,0.4144135,6.2701416
				l0.0251312,0.1621704L136.0086823,323.7592468z M144.493103,318.0552368l-0.0407715-0.3480225
				c-0.5035553-4.3242493-0.1375122-8.7556458,1.0312653-12.4777222c2.6988678-8.5925293,10.7503815-11.716217,17.030014-12.822876
				c1.1218414-0.1982117,2.1275177-0.3395081,3.0743866-0.4343262l0.35466-0.0350952l0.0426788,0.3537292
				c0.877655,7.2288818-0.5922089,13.8517761-4.0331116,18.1703491c-3.5907288,4.2559509-9.8248444,7.0107727-17.1106262,7.5674133
				L144.493103,318.0552368z M165.3039856,292.7347107c-0.8245392,0.0910339-1.7003021,0.2190552-2.6642456,0.3888245
				c-6.0804901,1.0725098-13.8721771,4.0805054-16.4610291,12.3240662
				c-1.1076202,3.5267334-1.4746094,7.7125244-1.0417175,11.8262329c6.9405975-0.6012268,12.8499146-3.242218,16.2519379-7.2743835
				C164.646347,305.9113159,166.0683136,299.6316833,165.3039856,292.7347107z"/>
		</g>
		<path class="st9" d="M169.5368347,100.0097046c-13.49823-0.3802643-25.6726532-5.5473328-32.8345795-14.0350723
			c-8.5182343-10.6899948-9.1526794-26.0468254-6.9077148-36.8507004c0.4534607-2.1859894,2.401535-3.7843018,4.6322632-3.8026047
			c0.1301422,0,0.258255-0.0020332,0.3883972-0.0020332c8.7866516,0,17.9861145,2.3527374,25.2985077,6.4766312
			c10.9096069,6.1553383,16.9612427,17.9800148,17.0405426,33.2961769c0.0162659,3.3267746-0.1789398,6.2854843-0.5958099,8.9981461
			l4.5183868,5.4253235l-3.1030884,1.8809662c-1.07164,0.6486816-2.2530823,0.9618301-3.4203033,0.9618301
			C172.6744995,102.3583679,170.8321686,101.5470123,169.5368347,100.0097046z M143.8052063,80.1507492
			c5.0287933,5.9601288,13.7259827,9.7851028,23.9665833,10.5679932c0.709671-6.090271,0.2013092-12.2842484-1.445816-17.5306244
			c-3.759903-11.9710884-15.0253754-16.330864-23.8140564-17.8803749c-1.5617218-0.2745209-2.9973602-0.4778671-4.3333435-0.6120796
			C136.9584808,64.7491837,139.0122986,74.1357193,143.8052063,80.1507492z"/>
		<path class="st9" d="M278.964325,275.5823669c-0.7422791-0.9007874,1.8407593-3.8028259,1.6598816-5.0423889l20.2129211-0.0368958
			l7.0603638,0.0368958c1.8283691-2.0467834,3.9876099-4.0789795,6.5653687-6.1820374
			c11.870575-9.6788635,24.844635-12.5282593,36.5327759-8.0232239c7.8327942,3.020752,15.4987183,8.6242065,21.0864563,15.4052429
			c0.0827637,0.1004639,0.1626587,0.2006226,0.2454224,0.3010559c1.40448,1.7331848,1.4098511,4.2530212,0.0112,5.993103
			c-6.9101868,8.6030884-19.1651917,17.8793945-32.8321533,18.1036377
			c-11.1048584-0.1295471-22.8237305-6.2266541-31.7011719-16.4020081c-1.8091125-0.0198364-30.5341797,0-30.5341797,0
			S279.0838318,275.727417,278.964325,275.5823669z M362.7070618,275.1070557
			c-0.953186-0.9456787-2.0230713-1.9243164-3.2280884-2.9549866c-6.7848511-5.7972412-17.3135681-11.71875-28.9432373-7.0076294
			c-5.0963135,2.0652161-10.1997681,5.6118469-14.4485779,10.0325317
			c7.1165466,7.4052429,15.5992737,11.6848145,23.3969421,11.7755127
			C347.1741333,286.8262329,355.7242126,282.4420166,362.7070618,275.1070557z"/>
	</g>
</g>
</svg>
