<svg id="Layer_1" data-name="Layer 1" xmlns="http://www.w3.org/2000/svg" viewBox="0 0 195.19 257.39"><defs><style>.cls-1{fill:#db4437;}.cls-2{fill:#ffe3a4;}.cls-3{fill:#fff;}.cls-4{fill:#ffe6e3;}.cls-5{fill:#a44a00;}.cls-6{fill:#f4b400;}.cls-7{fill:#b42600;}.cls-8{fill:#330804;}</style></defs><polygon class="cls-1" points="25.19 161.61 54.88 129.79 73.65 125.75 95.55 133.75 99.95 136.75 101.93 135.76 103.94 133.48 111.15 132.11 123.56 126.05 146.94 131.48 171.36 157.76 169.8 177.18 25.19 177.63 25.19 161.61"/><path class="cls-2" d="M172,140V87.17s1.49-54-58.85-70.16l-3-12.1S88.32,6.3,79.41,16.16l-3.35,3.08s-34.77,9.1-46.37,47.7L40.37,78.72l7-5.49L57.57,84l.62,4.2,6.63-7.39,10,1.36,1.22,3.43L60.92,100.72l3.81,16.34,10.11,11.16,20,7.57,3.12-.53,3.88,5.66,4.37-5.58,20-7.31,20.68,4.55,13.79,16.13L169.5,156l2.13-2Z" transform="translate(-1.2 -2.47)"/><polygon class="cls-3" points="74.21 103.45 74.21 126.29 95.55 133.32 95.92 121.85 74.21 102.09 74.21 103.45"/><polygon class="cls-3" points="105.03 121.9 105.74 133.75 124.45 126.25 123.32 107 118.63 110.42 117.46 115.15 111.15 115.94 105.03 121.9"/><polygon class="cls-2" points="26.24 77.3 25.7 102.94 32.92 96.52 35.65 86.03 26.24 77.3"/><path class="cls-3" d="M171,91.46l-26.38-.35s-7.56-7.24.37-12.76l2.86-.34S146.46,64.7,167.21,64.7C167.21,64.7,172.21,81.19,171,91.46Z" transform="translate(-1.2 -2.47)"/><path class="cls-4" d="M81.91,90.64s-10.19-5.28-5.58-15.16,7,2.74,7,2.74l5-6s7.05-3.47,9.53-2.48,25.32,5.58,32.52,1.7l-4.12,25.89,4.12,5.08s8.54,3.76,12.28,2.13c0,0-7.24,7.35-22.54,2.73l-1.11,10.38S104.3,122,98.82,111.76C98.82,111.76,89.3,113.3,81.91,90.64Z" transform="translate(-1.2 -2.47)"/><path class="cls-4" d="M80.71,91.46l1.07,20.1,14.94,13.9,0,10.33,4.84,4.25,4.64-4.7,1.11-11.77,5-5.16s-10.34-.1-13.53-6.65c0,0-8.34,2.5-16.54-20Z" transform="translate(-1.2 -2.47)"/><path class="cls-5" d="M87,104.09s11.68,4,20.4-7.84c0,0,3.35-1,3.94,0s.45-1,.45-1,3.51,2.39,4.85,2.11a43.9,43.9,0,0,0,5.56-1.76c1-.45,9.27,11.62,19.5,9.16,0,0-10.54,9.32-24.92-.18C116.75,104.56,103.8,114.16,87,104.09Z" transform="translate(-1.2 -2.47)"/><polygon class="cls-6" points="25.4 127.57 25.66 117.95 45.8 97.82 52.61 103.55 46.07 112.27 62.93 128.15 51.46 130.54 49.38 120.44 42.42 121.31 40.74 123.01 40.56 138.22 25.4 137.67 25.4 127.57"/><polygon class="cls-6" points="45.66 96.94 51.73 91.62 58.81 98.27 62.93 114.05 45.66 96.94"/><polygon class="cls-6" points="39.07 75.83 45.45 69.36 57.05 82.57 57.05 86.92 46.1 97.29 39.09 90.97 46.63 82.93 39.07 75.83"/><polygon class="cls-6" points="35.13 86.86 33.63 97.23 39.17 104.13 45.88 97.42 35.13 86.86"/><path class="cls-3" d="M11.71,119.74l22-20.65s7.16,6.69,6.65,7.51-22,22.43-22,22.43l-6.78-8.54Z" transform="translate(-1.2 -2.47)"/><polygon class="cls-3" points="21.77 73.3 40.09 90.68 47.19 83.11 25.19 61.58 17.85 68.91 21.77 73.3"/><polygon class="cls-3" points="58.82 83.48 64.24 77.76 75.13 82.03 58.9 98.99 52.9 90.68 58.82 83.48"/><polygon class="cls-3" points="44.64 111.03 51.94 103 73.65 125.75 64.02 129.11 44.64 111.03"/><path class="cls-2" d="M41,141.68s-1.76-18.89,3.93-18.83,8.49,4.29,8,6.84-1.88,9.53-1.88,9.53Z" transform="translate(-1.2 -2.47)"/><polygon class="cls-7" points="145.76 132.2 145.76 177.63 169.8 177.18 169.59 154.91 145.76 132.2"/><polygon class="cls-7" points="53.82 177.63 53.82 132.68 24.8 163.66 24.8 178.92 53.82 177.63"/><path class="cls-8" d="M124.91,58.27" transform="translate(-1.2 -2.47)"/><path class="cls-8" d="M74.81,83.79h-.14c-1.93-.2-19-2.18-22.37-8.88a5.92,5.92,0,0,1,.37-5.9c5.62-9.75,26-10,62.31-.64C125.3,71,133.62,70,139.71,65.22,147.76,59,151.89,46.46,152,28c-.88-.6-2.66-1.79-4.74-3.12a1.37,1.37,0,0,1-.57-1.56L153,3.43a1.36,1.36,0,0,1,1.19-1,1.34,1.34,0,0,1,1.33.75L162,16.33a1.36,1.36,0,1,1-2.44,1.22l-5-10.09-4.95,15.72c2.59,1.67,4.53,3,4.53,3a1.35,1.35,0,0,1,.59,1.12c0,19.72-4.49,33.2-13.35,40.07-6.79,5.27-15.91,6.48-27.08,3.62C79.83,62.15,59.89,61.94,55,70.36a3.16,3.16,0,0,0-.29,3.3c2.32,4.57,15.38,6.9,20.21,7.41a1.36,1.36,0,0,1-.14,2.72Z" transform="translate(-1.2 -2.47)"/><path class="cls-8" d="M130.45,65.3C117.87,60,110.38,14.89,109.08,6.4,104.17,7,86.43,9.56,80,17.58a9.68,9.68,0,0,0-2.2,7.69,146.83,146.83,0,0,1,0,35l-2.7-.38a144.83,144.83,0,0,0,0-34.21,12.43,12.43,0,0,1,2.77-9.77C86.07,5.66,109.14,3.63,110.12,3.55l1.28-.11.18,1.28c2.12,14.7,9.82,53.79,19.93,58.07Z" transform="translate(-1.2 -2.47)"/><path class="cls-8" d="M126.68,98l-2-.9c2.51-5.6,4.31-25.53,4.33-25.73l2.17.19C131.11,72.39,129.34,92.05,126.68,98Z" transform="translate(-1.2 -2.47)"/><path class="cls-8" d="M110.53,119.09A14.54,14.54,0,0,1,98,112.84c-11-.77-17.05-21.46-17.31-22.36l2.1-.6c0,.2,6.11,20.8,15.84,20.8h.66l.31.58c.12.23,3.1,5.64,10.89,5.64,5,0,6.93-.31,7.58-.48a72.07,72.07,0,0,1,1.72-9.16l2.11.58a72.49,72.49,0,0,0-1.73,9.39C120.22,118.19,119.49,119.09,110.53,119.09Zm7.53-2.21a.8.8,0,0,0,0,.23A1.62,1.62,0,0,0,118.06,116.88Z" transform="translate(-1.2 -2.47)"/><path class="cls-8" d="M118.41,90.26c-1.26-1.89-2.67-8.51-2.82-9.25l2-.43c.56,2.68,1.74,7.36,2.52,8.53Z" transform="translate(-1.2 -2.47)"/><path class="cls-8" d="M116.74,98.39a3.34,3.34,0,0,1-2.35-.85,11.76,11.76,0,0,0-4.28-2.11l.54-2a13.6,13.6,0,0,1,5.21,2.64,2.32,2.32,0,0,0,2.43-.24c1.09-.72,1.31-2,.62-3.67l1.92-.79c1.07,2.59.55,4.91-1.38,6.19A5,5,0,0,1,116.74,98.39Z" transform="translate(-1.2 -2.47)"/><path class="cls-8" d="M108.09,95.59a4.52,4.52,0,0,1-.66-3.55l2,.34a2.58,2.58,0,0,0,.28,2Z" transform="translate(-1.2 -2.47)"/><path class="cls-8" d="M128.37,110a17.64,17.64,0,0,1-12.91-5.11l1.55-1.55c6.17,6.18,15,4.68,20.87,2.63-4.4-.42-9.35-2.72-14-8.91-1.15-1.54-3.74,0-3.76,0L119,95.18c1.48-.92,4.78-2,6.66.52,6.63,8.83,13.8,8.86,18.66,7.32a1.09,1.09,0,0,1,.89,2C144.69,105.3,136.86,110,128.37,110Z" transform="translate(-1.2 -2.47)"/><path class="cls-8" d="M103.36,109.68c-9,0-16.91-4.61-17-4.68a1.09,1.09,0,0,1,.89-2c7,2.2,13.41-.33,18.66-7.32,1.87-2.5,5.17-1.44,6.65-.52L111.39,97s-2.62-1.57-3.77,0c-4.56,6.08-9.41,8.41-13.75,8.88,6.3,2,16,3.37,23.3-3.93l1.54,1.54A21,21,0,0,1,103.36,109.68Z" transform="translate(-1.2 -2.47)"/><path class="cls-8" d="M83.85,79.16S88.3,68.49,99,70.86s21.64,4.15,29.34,1.78l.55-1.07L88,64.64S64.88,61.38,60.14,70,72.59,81.53,72.59,81.53l3.26.89s-1-12.8,5-9C85.2,76.21,83.85,79.16,83.85,79.16Z" transform="translate(-1.2 -2.47)"/><path class="cls-8" d="M79.09,63.87l-1.46-2.3c.31-.2,31.26-19.54,62.67-7.42l-1,2.55C109.22,45.09,79.39,63.68,79.09,63.87Z" transform="translate(-1.2 -2.47)"/><path class="cls-8" d="M161.56,37.66" transform="translate(-1.2 -2.47)"/><rect class="cls-8" x="80.13" y="89.32" width="2.08" height="21.45" transform="translate(-5.13 0.85) rotate(-2.29)"/><path class="cls-8" d="M173.18,181.83H24.46V120.39h4.36v57.08h140V87.76a70.17,70.17,0,0,0-56.07-68.61l.86-4.28a74.54,74.54,0,0,1,59.57,72.89Z" transform="translate(-1.2 -2.47)"/><rect class="cls-8" x="23.26" y="117.85" width="4.37" height="0.34"/><path class="cls-8" d="M28.82,105.41H24.46V87.76a76.29,76.29,0,0,1,.45-8.28l4.34.48a72.53,72.53,0,0,0-.43,7.8Z" transform="translate(-1.2 -2.47)"/><path class="cls-8" d="M31.78,67.57,27.6,66.32A74.25,74.25,0,0,1,76.51,16.8L77.82,21A69.9,69.9,0,0,0,31.78,67.57Z" transform="translate(-1.2 -2.47)"/><path class="cls-8" d="M96.75,137.32a1,1,0,0,1-.38-.07L75,129.55a1.1,1.1,0,0,1-.72-1l0-24.31a1.26,1.26,0,0,1,0-.39,1.08,1.08,0,0,1,.42-.76l5.44-4.28,1.35,1.72L77,104.05a204.84,204.84,0,0,0,20.43,19.47,1.08,1.08,0,0,1,.41.85v11.86a1.11,1.11,0,0,1-.47.89A1.07,1.07,0,0,1,96.75,137.32Zm-20.26-9.57,19.16,6.92v-9.78a209.91,209.91,0,0,1-19.16-18.16Z" transform="translate(-1.2 -2.47)"/><path class="cls-8" d="M123.63,108.69" transform="translate(-1.2 -2.47)"/><path class="cls-8" d="M119.27,115.62" transform="translate(-1.2 -2.47)"/><path class="cls-8" d="M119.58,115.19" transform="translate(-1.2 -2.47)"/><rect class="cls-8" x="119.1" y="109.94" width="6.14" height="1.94" transform="translate(-43.93 102.67) rotate(-40.23)"/><path class="cls-8" d="M119.83,112.89" transform="translate(-1.2 -2.47)"/><path class="cls-8" d="M106.23,137.32a1.07,1.07,0,0,1-.61-.19,1.08,1.08,0,0,1-.48-.9V124.37a1.1,1.1,0,0,1,.39-.84l7.28-6.14a1.09,1.09,0,1,1,1.4,1.67l-6.89,5.82v9.71l16.34-6.8v-19a1.1,1.1,0,0,1,2.19,0v19.7a1.1,1.1,0,0,1-.68,1l-18.52,7.7A1,1,0,0,1,106.23,137.32Z" transform="translate(-1.2 -2.47)"/><path class="cls-8" d="M148.06,188.63h-2.73v-55c-5.68-.73-19.36-3.9-20-4l.62-2.66c.16,0,16.54,3.83,20.82,4.12a1.37,1.37,0,0,1,1.28,1.36Z" transform="translate(-1.2 -2.47)"/><path class="cls-8" d="M54.39,180.1H51.66V132.37A1.37,1.37,0,0,1,52.93,131c4.29-.29,21.43-4.27,21.6-4.31l.62,2.66c-.66.15-15,3.48-20.76,4.24Z" transform="translate(-1.2 -2.47)"/><circle class="cls-3" cx="99.8" cy="148.37" r="2.13"/><path class="cls-8" d="M101,153.73a2.89,2.89,0,1,1,2.88-2.89A2.89,2.89,0,0,1,101,153.73Zm0-4.26a1.37,1.37,0,1,0,1.36,1.37A1.37,1.37,0,0,0,101,149.47Z" transform="translate(-1.2 -2.47)"/><circle class="cls-3" cx="99.95" cy="158.56" r="2.13"/><path class="cls-8" d="M101.15,163.92A2.89,2.89,0,1,1,104,161,2.89,2.89,0,0,1,101.15,163.92Zm0-4.26a1.37,1.37,0,1,0,1.37,1.37A1.37,1.37,0,0,0,101.15,159.66Z" transform="translate(-1.2 -2.47)"/><circle class="cls-3" cx="100.1" cy="168.74" r="2.13"/><path class="cls-8" d="M101.3,174.1a2.89,2.89,0,1,1,2.89-2.89A2.9,2.9,0,0,1,101.3,174.1Zm0-4.25a1.37,1.37,0,1,0,1.37,1.36A1.37,1.37,0,0,0,101.3,169.85Z" transform="translate(-1.2 -2.47)"/><rect class="cls-8" x="21" y="145.91" width="37.66" height="2.96" transform="translate(-94.46 70.12) rotate(-45.54)"/><rect class="cls-8" x="167.86" y="124.75" width="3.28" height="64.7" transform="translate(-62.73 160.65) rotate(-44.32)"/><path class="cls-8" d="M53.58,201.48" transform="translate(-1.2 -2.47)"/><path class="cls-8" d="M46,228.21h-.44L42.68,226c-.51,1.43-1.68,2.15-3.5,2.15h-14q-3.84,0-3.84-3.94V193.63q0-4,3.92-4H39.18q3.91,0,3.92,4v26.55l2.92,2.1Zm-9.37-5.6v-1.52l-3.78-2.86v-5.88h.38l3.4,2.54V195.2H27.8v27.41Z" transform="translate(-1.2 -2.47)"/><path class="cls-8" d="M67.33,228.15H61.05v-1l-4.39.71a29.43,29.43,0,0,1-4.41.42c-2.3,0-3.44-1.15-3.44-3.45V200.3h6.25v22.61l6-.14V200.3h6.28Z" transform="translate(-1.2 -2.47)"/><path class="cls-8" d="M78.33,196.31H72V189.8h6.31Zm0,31.84h-6.2V200.3h6.2Z" transform="translate(-1.2 -2.47)"/><path class="cls-8" d="M101.6,228.15H94.77l-3.34-8.74L88,228.15H81.26V228L88,213.81,81.89,200.3H88.4l3,8.08,3.17-8.08H101v.11l-6.09,13.35Z" transform="translate(-1.2 -2.47)"/><path class="cls-8" d="M122.78,224.7q0,3.45-3.5,3.45H108q-3.56,0-3.55-3.45V203.75q0-3.45,3.55-3.45h11.31q3.5,0,3.5,3.45Zm-6.18-1.79V205.57h-6v17.34Z" transform="translate(-1.2 -2.47)"/><path class="cls-8" d="M139.35,228.15h-7c-2.34,0-3.5-1.15-3.5-3.45v-19h-3V200.3h3v-7.55h6.28v7.55h6.92v5.38h-6.92v17.09h4.22Z" transform="translate(-1.2 -2.47)"/><path class="cls-8" d="M154.87,228.15h-7q-3.5,0-3.5-3.45v-19h-3V200.3h3v-7.55h6.28v7.55h4.06v5.38h-4.06v17.09h4.22Z" transform="translate(-1.2 -2.47)"/><path class="cls-8" d="M176.38,224.7q0,3.45-3.56,3.45H161.93q-3.56,0-3.55-3.45V203.75q0-3.45,3.55-3.45h10.89q3.56,0,3.56,3.45V214l-1.74,1.74H164.41v7.8h5.93v-4.63h6Zm-6-13.09v-6.67h-5.93v6.67Z" transform="translate(-1.2 -2.47)"/><path class="cls-8" d="M101.52,141.13a1.09,1.09,0,0,1-.81-.36l-4.78-5.32L97.56,134l4,4.41,3.89-4.41,1.64,1.45-4.71,5.32A1.47,1.47,0,0,1,101.52,141.13Z" transform="translate(-1.2 -2.47)"/><path class="cls-8" d="M80.84,82.83l-1.07-.22c.83-4.18.12-5-.11-5.16s-1.06.14-1.22.26l-.64-.89a2.3,2.3,0,0,1,2.45-.29C81.35,77.24,81.54,79.3,80.84,82.83Z" transform="translate(-1.2 -2.47)"/><path class="cls-8" d="M148.79,78.32l-3.24-.48c0-.13,2-12.67,15.69-14.1l.34,3.26A14.1,14.1,0,0,0,148.79,78.32Z" transform="translate(-1.2 -2.47)"/><path class="cls-8" d="M147.69,93.1a8.12,8.12,0,0,1-5.35-2,8.77,8.77,0,0,1-2.54-6.75c0-2.89.94-5.08,2.77-6.51,3.49-2.72,8.87-1.42,9.1-1.36l-.79,3.18c-1.13-.28-4.46-.68-6.3.76a4.67,4.67,0,0,0-1.5,3.93,5.69,5.69,0,0,0,1.46,4.32,4.85,4.85,0,0,0,3.33,1.14h38.34v3.27H147.69Z" transform="translate(-1.2 -2.47)"/><path class="cls-8" d="M196.38,132.39a4.9,4.9,0,0,1-3.45-1.41,2.22,2.22,0,0,0-3.36,0,4.93,4.93,0,0,1-6.9,0,2.21,2.21,0,0,0-3.35,0,4.93,4.93,0,0,1-6.9,0,2.18,2.18,0,0,0-1.67-.77,2.21,2.21,0,0,0-1.67.77,4.91,4.91,0,0,1-6.89,0,2.18,2.18,0,0,0-1.66-.77,2.22,2.22,0,0,0-1.68.77,4.91,4.91,0,0,1-6.89,0,2.18,2.18,0,0,0-1.67-.77v-2.73a4.9,4.9,0,0,1,3.45,1.42,2.18,2.18,0,0,0,1.67.77,2.25,2.25,0,0,0,1.67-.77,4.89,4.89,0,0,1,6.89,0,2.18,2.18,0,0,0,1.66.77,2.25,2.25,0,0,0,1.68-.77,4.88,4.88,0,0,1,6.88,0,2.22,2.22,0,0,0,3.36,0,4.89,4.89,0,0,1,6.89,0,2.22,2.22,0,0,0,3.36,0,4.9,4.9,0,0,1,6.9,0,2.25,2.25,0,0,0,1.68.77Z" transform="translate(-1.2 -2.47)"/><polygon class="cls-8" points="26.43 136.75 45.85 136.75 26.43 155.86 26.43 136.75"/><line class="cls-8" x1="153.35" y1="156.13" x2="153.35" y2="139.12"/><polyline class="cls-8" points="152.8 139.12 152.8 137.02 171.36 137.02 160.8 147.89"/><path class="cls-8" d="M94.49,80.73l-1.63-.93c0-.09,4.91-8.29,17.8-3.42L110,78.14C98.59,73.83,94.53,80.66,94.49,80.73Z" transform="translate(-1.2 -2.47)"/><path class="cls-8" d="M103.5,81.21a18.72,18.72,0,0,1-7.86-2l.89-1.66a17.13,17.13,0,0,0,7,1.8Z" transform="translate(-1.2 -2.47)"/><path class="cls-8" d="M103.77,76.05a2.31,2.31,0,1,0,2.31,2.3A2.3,2.3,0,0,0,103.77,76.05Zm-.13,3.12a1,1,0,1,1,1-1A1,1,0,0,1,103.64,79.17Z" transform="translate(-1.2 -2.47)"/><path class="cls-8" d="M79.76,57.61a141.17,141.17,0,0,0-.55-31.12C77,14.48,95,10.11,100,9.57c0,0,2.19,27.84,6,38.76A49.81,49.81,0,0,0,79.76,57.61Z" transform="translate(-1.2 -2.47)"/><polygon class="cls-8" points="27.24 162.68 51.91 139.12 52.9 132.11 46.79 136.61 25.45 159.23 27.24 162.68"/><polygon class="cls-8" points="174.24 40.67 168.75 40.67 168.75 35.21 164.54 35.21 164.53 40.67 159.08 40.66 159.08 37.93 161.81 37.94 161.81 32.48 171.48 32.48 171.48 37.94 174.24 37.94 174.24 40.67"/><polygon class="cls-8" points="184.54 58.14 181.81 58.14 181.85 35.22 177.64 35.22 177.64 40.68 172.18 40.67 172.18 37.94 174.91 37.94 174.91 32.48 184.59 32.49 184.54 58.14"/><path class="cls-8" d="M54.1,141.68H40.45V126.51a5,5,0,0,1,5-5h3.59a5,5,0,0,1,5,5Zm-11.47-2.19h9.29v-13a2.86,2.86,0,0,0-2.85-2.85H45.48a2.86,2.86,0,0,0-2.85,2.85Z" transform="translate(-1.2 -2.47)"/><path class="cls-8" d="M47.27,122.57a5.76,5.76,0,0,0-1.91.33,5.73,5.73,0,0,1,3.82,5.4v12.29H53V128.3A5.74,5.74,0,0,0,47.27,122.57Z" transform="translate(-1.2 -2.47)"/><path class="cls-8" d="M60.92,102.08a1.36,1.36,0,0,1-1-.4l-7.33-7.33,1.93-1.93,6.37,6.37L75.1,84.61,77,86.54,61.88,101.68A1.32,1.32,0,0,1,60.92,102.08Z" transform="translate(-1.2 -2.47)"/><rect class="cls-8" x="44.08" y="90.45" width="22.16" height="2.73" transform="translate(-49.96 63.42) rotate(-45)"/><path class="cls-8" d="M18.08,128.89l-7.33-7.34a1.33,1.33,0,0,1-.4-1,1.37,1.37,0,0,1,.4-1l22-22a1.41,1.41,0,0,1,1.93,0L42,105l-1.93,1.93-6.37-6.37L13.64,120.59,20,127Z" transform="translate(-1.2 -2.47)"/><rect class="cls-8" x="17.18" y="110.78" width="35.3" height="2.73" transform="translate(-70.29 55) rotate(-45)"/><rect class="cls-8" x="-2.15" y="118.38" width="29.42" height="2.73" transform="translate(-82.16 41.46) rotate(-44.98)"/><path class="cls-8" d="M59.05,128,45.29,114.22a1.35,1.35,0,0,1,0-1.93L52.62,105l1.93,1.93-6.37,6.37L61,126.06Z" transform="translate(-1.2 -2.47)"/><rect class="cls-8" x="59.8" y="93.93" width="2.73" height="39.13" transform="translate(-63.54 74.02) rotate(-45)"/><path class="cls-8" d="M42,94.35l-1.93-1.93,6.37-6.37L26.38,66,20,72.35l-1.93-1.93,7.34-7.34a1.37,1.37,0,0,1,1.93,0l22,22a1.37,1.37,0,0,1,0,1.93Z" transform="translate(-1.2 -2.47)"/><rect class="cls-8" x="33.47" y="69.52" width="2.73" height="35.3" transform="translate(-52.63 47.69) rotate(-45)"/><rect class="cls-8" x="25.87" y="50.19" width="2.73" height="29.42" transform="translate(-39.11 35.79) rotate(-45)"/><path class="cls-8" d="M34.22,86.31" transform="translate(-1.2 -2.47)"/><path class="cls-8" d="M70.66,122.81" transform="translate(-1.2 -2.47)"/><path class="cls-8" d="M85.49,91.58c-6,0-10.16-3.49-11.11-9.32-.74-4.58.92-9.06,3.71-10a4.33,4.33,0,0,1,4.33.47c2.37,1.94,1.88,6.57,1.82,7.09l-1.87-.23c.13-1.13.19-4.31-1.15-5.4a2.55,2.55,0,0,0-2.53-.14c-1.88.63-3,4.32-2.45,7.89.38,2.33,2,7.74,9.25,7.74Z" transform="translate(-1.2 -2.47)"/><path class="cls-8" d="M186.56,124.75a4.86,4.86,0,0,1-3.45-1.41,2.23,2.23,0,0,0-3.37,0,4.91,4.91,0,0,1-6.89,0,2.22,2.22,0,0,0-3.36,0,4.91,4.91,0,0,1-6.89,0,2.22,2.22,0,0,0-3.35,0,4.88,4.88,0,0,1-6.88,0,2.24,2.24,0,0,0-1.67-.76,2.18,2.18,0,0,0-1.67.77,4.91,4.91,0,0,1-6.89,0,2.22,2.22,0,0,0-1.68-.77v-2.73a4.86,4.86,0,0,1,3.45,1.42,2.24,2.24,0,0,0,1.67.76,2.21,2.21,0,0,0,1.67-.76,4.89,4.89,0,0,1,6.89,0,2.21,2.21,0,0,0,3.34,0,4.89,4.89,0,0,1,6.89,0,2.23,2.23,0,0,0,3.35,0,4.9,4.9,0,0,1,6.9,0,2.23,2.23,0,0,0,3.35,0,4.91,4.91,0,0,1,6.91,0,2.24,2.24,0,0,0,1.68.76Z" transform="translate(-1.2 -2.47)"/><polygon class="cls-8" points="142.16 182.97 19.76 182.97 19.76 131.08 14.53 136.32 13.77 135.56 20.83 128.5 20.83 181.9 142.16 181.9 142.16 182.97"/><polygon class="cls-8" points="175.49 182.97 148.89 182.97 148.89 181.9 174.42 181.9 174.42 168.74 175.49 168.74 175.49 182.97"/><polygon class="cls-8" points="184.6 164.72 174.42 154.54 174.42 133.75 175.49 133.75 175.49 154.09 185.36 163.97 184.6 164.72"/><polygon class="cls-8" points="175.49 115.53 174.42 115.53 174.42 93.54 183.37 93.54 183.37 94.62 175.49 94.62 175.49 115.53"/><path class="cls-8" d="M175.59,85l0-.94a76.83,76.83,0,0,0-10.65-36.14l.92-.54A77.91,77.91,0,0,1,176.63,84l0,1Z" transform="translate(-1.2 -2.47)"/><path class="cls-8" d="M143.24,24.35a76,76,0,0,0-28-12.38l.23-1.05a77.17,77.17,0,0,1,28.41,12.56Z" transform="translate(-1.2 -2.47)"/><path class="cls-8" d="M22,104.82H21V87c0-.54,0-3.15,0-4.07l-9.75-9.75.76-.76L22.05,82.5v.23c0,.59,0,3.69,0,4.28Z" transform="translate(-1.2 -2.47)"/><path class="cls-8" d="M28.71,55.63l-1-.44A77.94,77.94,0,0,1,75.46,12.71l.32,1A76.89,76.89,0,0,0,28.71,55.63Z" transform="translate(-1.2 -2.47)"/><path class="cls-8" d="M75.39,104l5.46-3.82s.54,7.64.54,8.19-1.09.54-1.09.54Z" transform="translate(-1.2 -2.47)"/><polygon class="cls-8" points="119.5 105.91 118.97 110.13 123.32 107 122.78 106.45 120.05 105.36 119.5 105.91"/><polygon class="cls-8" points="76.92 127.74 56.72 132.11 56.72 176.33 51.81 176.33 51.81 130.47 66.55 127.2 75.28 124.47 76.92 127.74"/><rect class="cls-8" x="60.64" y="99.68" width="2.73" height="16.82" transform="translate(-24.1 14.41) rotate(-13.11)"/><rect class="cls-8" x="20.77" y="122.95" width="14.91" height="2.73" transform="translate(-100.46 121.13) rotate(-76.89)"/><polygon class="cls-8" points="34.1 97.48 31.44 96.86 33.25 89.1 33.25 85.37 35.98 85.37 35.94 89.57 34.1 97.48"/><polygon class="cls-8" points="58.36 85.71 55.63 85.71 55.63 82.71 45.8 72.39 41.06 77.37 39.09 75.49 44.95 69.33 46.66 69.33 58.36 81.61 58.36 85.71"/><rect class="cls-8" x="44.99" y="66.6" width="2.18" height="4.91"/><rect class="cls-8" x="99.3" y="137.57" width="2.18" height="4.91"/><path class="cls-8" d="M76.4,257.16H69.23V235.31h7.09V237H71.17v8.15h4.69v1.75H71.17v8.51H76.4Z" transform="translate(-1.2 -2.47)"/><path class="cls-8" d="M86.53,255.58A1.4,1.4,0,0,1,85,257.16H80.69a1.4,1.4,0,0,1-1.58-1.58V252.5h1.83v3.05H84.7v-2.7l-4.86-4a1.78,1.78,0,0,1-.7-1.46v-2.26a1.4,1.4,0,0,1,1.58-1.58h4.2a1.4,1.4,0,0,1,1.58,1.58v2.71H84.7v-2.68H80.94v2.37l4.9,4a1.8,1.8,0,0,1,.69,1.48Z" transform="translate(-1.2 -2.47)"/><path class="cls-8" d="M94.36,257.16H91.72a1.39,1.39,0,0,1-1.56-1.58V245.21H88.52v-1.64h1.64v-4.23H92v4.23h6.22v1.64H92v10.32h2.37Z" transform="translate(-1.2 -2.47)"/><path class="cls-8" d="M104.51,257.16h-1.83v-.38l-2.22.3a18.55,18.55,0,0,1-2.22.16,1.33,1.33,0,0,1-1.51-1.5V243.57h1.83V255.5l4.12-.11V243.57h1.83Zm-.85-18-3.42,3.22h-1.3v-.08l2.09-3.2h2.63Z" transform="translate(-1.2 -2.47)"/><path class="cls-8" d="M115.26,259.86h-1.84v-3.08c-2,.31-3.1.46-3.31.46a2.43,2.43,0,0,1-1.91-.8,2.83,2.83,0,0,1-.73-2v-7.95a2.83,2.83,0,0,1,.82-2.08,2.78,2.78,0,0,1,2.07-.84h3.06v-8.26h1.84Zm-1.84-4.39V245.21h-2.57a1.38,1.38,0,0,0-1.54,1.58v7.26a1.37,1.37,0,0,0,1.54,1.56C111.09,255.61,112,255.56,113.42,255.47Z" transform="translate(-1.2 -2.47)"/><path class="cls-8" d="M120.29,240.6H118.4v-2.34h1.89Zm0,16.56h-1.83V243.57h1.83Z" transform="translate(-1.2 -2.47)"/><path class="cls-8" d="M131.22,255.58a1.4,1.4,0,0,1-1.58,1.58H125a1.39,1.39,0,0,1-1.57-1.58V245.15a1.39,1.39,0,0,1,1.57-1.58h4.66a1.4,1.4,0,0,1,1.58,1.58Zm-1.86-.05V245.21h-4.09v10.32Z" transform="translate(-1.2 -2.47)"/><rect class="cls-8" x="57.57" y="244.45" width="6.25" height="1.73"/><rect class="cls-8" x="133.42" y="244.45" width="6.25" height="1.73"/></svg>