<?xml version="1.0" encoding="utf-8"?>
<!-- Generator: Adobe Illustrator 24.3.0, SVG Export Plug-In . SVG Version: 6.00 Build 0)  -->
<svg version="1.1" id="Camada_1" xmlns="http://www.w3.org/2000/svg" xmlns:xlink="http://www.w3.org/1999/xlink" x="0px" y="0px"
	 viewBox="0 0 475.4 405.1" style="enable-background:new 0 0 475.4 405.1;" xml:space="preserve">
<style type="text/css">
	.st0{fill:#DDF2EC;}
	.st1{fill:#1B3055;}
	.st2{fill:#AA5551;}
	.st3{fill:#853F38;}
	.st4{fill:#241A25;}
	.st5{fill:#F7AD5A;}
	.st6{fill:#E7913C;}
	.st7{fill:#362836;}
	.st8{fill:#180908;}
	.st9{fill:#9D3A2D;}
	.st10{fill:#EF806D;}
	.st11{fill:#FFFFFF;}
	.st12{fill:#F2913B;}
	.st13{fill:#B9B9B9;}
	.st14{fill:#E3E4E3;}
	.st15{fill:#3BB18A;}
	.st16{fill:#9F4F4B;}
</style>
<path class="st0" d="M5.2,294c-16.4-124.6,201.1-34.4,278-221.2C331.1-43.4,516.3,181.4,460.4,294C380.8,454.6,12,345.7,5.2,294z"/>
<path class="st1" d="M208.8,358.7c0,0-6.8,13.7-9,29.6c-2.1,15.9,48.5,16.8,48.5,16.8s98.2-0.5,77.4-38.4s-25.5-33.6-25.5-33.6
	L208.8,358.7z"/>
<path class="st2" d="M319.3,289.1c0,0,32.6-66.6,42.3-86.3c9.7-19.7,16.7-0.7,16.7-0.7S342.9,329.5,326,309.8
	C315.3,297.4,319.3,289.1,319.3,289.1z"/>
<path class="st2" d="M319.9,243.7c0,0,14.9,36.9,16.3,41.1s2.6,24.1-5.5,26.9c-15.9,5.5-29.7-39.4-35.9-66.7
	S319.9,243.7,319.9,243.7z"/>
<path class="st3" d="M302.1,239.3c-0.6-2.6-0.8-4.8-0.8-6.5c-5.1-1-8.5,1.4-6.1,12.3c6.2,27.3,20.1,72.1,35.9,66.7
	c2.2-0.8,3.7-2.8,4.7-5.4C320.9,307.3,308,265.3,302.1,239.3z"/>
<path class="st2" d="M169.9,262.6c0,0,12.7,44.3,14.4,49.3c1.6,4.9,3,27.7-6.3,30.9c-18.2,6.3-34.1-45.2-41.2-76.5
	C129.6,234.9,169.9,262.6,169.9,262.6z"/>
<path class="st4" d="M165.7,56.4c0.4-1.5,14.4-13.5,4.4-19.7c0,0,11.3-20.8-2-27.5s-22.3,5.9-22.3,5.9s2.8-13.2-2.7-15
	S137.8,15,137.8,15S124.6-4.2,107,7.1c-17.6,11.2,1,29.5,1,29.5s-12.7-12.3-17.1-8.4C86.5,32.1,102.8,44,102.8,44s-14.5-6.2-16.4,0
	c-1.8,6.1,15.6,7.4,15.6,7.4s-13.1-0.1-14.7,7.5s14.4,9.1,14.4,9.1s-14.6,12-2.4,27.5s24.9-4.3,24.9-4.3s-5.7,16.9-0.2,19.3
	c5.5,2.4,9.5-22.1,9.5-22.1s7.7,11.7,12.4,7.5s-4.2-16-4.2-16L165.7,56.4z"/>
<path class="st5" d="M187.2,54.6c0,0-22.2-3.9-27.8-2.1c-11.5,3.5-19.7,22.1-16.6,30.6S166,104,166,104L187.2,54.6z"/>
<path class="st6" d="M143.6,70.8c-1.5,4.6-1.9,9.1-0.8,12.3C145.9,91.6,166,104,166,104l8.9-20.7C163.4,82,152.7,78.4,143.6,70.8z"
	/>
<g>
	<g>
		<g>
			<g>
				<path class="st2" d="M261.3,267c-21.9,5.1-99.9-17.5-121.9-12.8c-2.7-14.4-2.9-27.1,3.2-31.7c16.9-13,61.4,2.1,58-36.3
					c-3.5-39.9-5.3-49.3-5.3-49.3l47.4,28.2c0,0-9.1,14.7,1.8,34.5c10,18,39.7-8.1,52.8,13.8C267.3,223.9,292.4,259.7,261.3,267z"/>
				<path class="st3" d="M242.5,195.4c-19,3.6-36.9-5.9-43.1-23c-2.7-28.3-4.1-35.4-4.1-35.4l47.4,28.2
					C242.7,165.1,234.9,177.8,242.5,195.4z"/>
			</g>
		</g>
		<path class="st2" d="M224.8,67.7c0,0,40.6-10.6,50.1,35.3c9.5,45.8-1.4,80.6-28.3,85.2c-30.5,5.3-53.5-19.3-58.5-56.5
			C184.6,105.9,182.8,71.2,224.8,67.7z"/>
	</g>
	<g>
		<g>
			<g>
				<path class="st7" d="M178,133c0,0,12.5-13.3,18.1,14.8c0,0,10.5-11.6-1.2-23.8c0,0,20-11.2,9.7-36.6c0,0,42.2-26.6,60.9-6.6
					c0,0-31-50.5-80.6-25.8C144.1,75.3,178,133,178,133z"/>
			</g>
		</g>
		<g>
			<g>
				<path class="st4" d="M172,65.2c5.6,17.9,18,36.1,34.5,43.3c-3,10.6-11.7,15.5-11.7,15.5c11.7,12.2,1.2,23.8,1.2,23.8
					c-5.5-28-18.1-14.8-18.1-14.8S152.7,90.1,172,65.2z"/>
			</g>
		</g>
	</g>
</g>
<g>
	<path class="st3" d="M252,113.9c0.8,2.2,1.7,4.4,2.5,6.5c0.8,2.2,1.7,4.3,2.7,6.4c0.9,2.1,1.9,4.2,3.1,6.1c0.6,1,1.2,1.9,1.9,2.8
		c0.7,0.8,1.5,1.6,2.4,2l1,0.4l-0.7,0.7c-1.4,1.3-2.8,2.4-4.3,3.5c-0.8,0.5-1.6,1-2.4,1.4s-1.7,0.8-2.6,1c0.8-0.4,1.6-0.8,2.3-1.4
		c0.7-0.5,1.4-1.1,2.1-1.7c1.4-1.2,2.7-2.4,3.9-3.7l0.3,1.1c-1.3-0.4-2.3-1.3-3.1-2.2c-0.8-0.9-1.5-1.9-2.1-2.9
		c-1.2-2-2.2-4.2-3.1-6.4c-0.9-2.2-1.6-4.4-2.3-6.7C252.9,118.5,252.4,116.2,252,113.9z"/>
</g>
<g>
	<path class="st2" d="M201.1,157.5c0,0-9.7-6.8-9-22.8c0,0-11.2-14.1-15.5-1.7C171.5,147.1,189.6,171.6,201.1,157.5z"/>
	<g>
		<path class="st3" d="M193.2,158c-0.9-0.4-1.7-0.9-2.6-1.4c-0.8-0.5-1.6-1.2-2.3-2c-0.6-0.8-1.2-1.8-1.2-3c0.1-1.2,1-2.2,1.8-2.8
			l-0.3,0.6c-0.3-2.5-0.7-5-1.1-7.5c-0.5-2.4-1-5-2.1-7c-0.3-0.5-0.6-0.9-0.9-1.1c-0.2-0.1-0.3-0.1-0.5-0.1h-0.1l-0.2,0.1l-0.4,0.1
			c-1.1,0.4-2.1,1.1-2.8,2s-1.1,2.1-1.1,3.3c0,1.2,0.3,2.5,0.8,3.6c-0.8-1-1.3-2.3-1.5-3.6c-0.2-1.3,0.1-2.8,0.8-4
			c0.8-1.2,1.9-2.1,3.2-2.7l0.5-0.2c0.2-0.1,0.3-0.1,0.6-0.2c0.5-0.1,1,0,1.4,0.2c0.8,0.4,1.3,1.1,1.7,1.7c0.7,1.2,1.2,2.5,1.5,3.8
			c0.4,1.3,0.6,2.5,0.8,3.8c0.5,2.6,0.7,5.1,0.8,7.7v0.4l-0.3,0.2c-0.7,0.5-1.3,1.1-1.4,1.8c-0.1,0.7,0.2,1.6,0.7,2.3
			c0.5,0.8,1.1,1.5,1.8,2.1C191.6,156.9,192.4,157.5,193.2,158z"/>
	</g>
</g>
<ellipse transform="matrix(0.9654 -0.2608 0.2608 0.9654 -22.6422 65.613)" class="st8" cx="235.9" cy="118.1" rx="3.3" ry="5.1"/>
<path class="st8" d="M267.8,110.3c0.7,2.7-0.1,5.3-1.8,5.8s-3.8-1.4-4.5-4.1s0.1-5.3,1.8-5.8C265.1,105.8,267.1,107.6,267.8,110.3z"
	/>
<g>
	<path d="M221.9,118.4c-0.5-2.2-0.5-4.4-0.2-6.6s1.1-4.5,2.5-6.4s3.3-3.5,5.6-4.1s4.6-0.7,6.8-0.1v0.2c-2.2,0.5-4.3,1-6.1,1.8
		c-1.9,0.8-3.7,1.7-5,3.3c-1.3,1.5-2.2,3.5-2.7,5.6s-0.7,4.3-0.6,6.4L221.9,118.4z"/>
</g>
<g>
	<path d="M271,101.7c-0.9-1.6-2-3-3.3-4.2s-2.8-2.2-4.4-2.6c-1.6-0.5-3.3-0.3-4.9,0l-0.6,0.1c-0.2,0-0.4,0.1-0.6,0.2
		c-0.4,0.1-0.8,0.2-1.3,0.3c-0.8,0.3-1.7,0.6-2.6,0.8l-0.1-0.2c0.7-0.7,1.4-1.3,2.2-1.9c0.4-0.3,0.8-0.5,1.3-0.7
		c0.2-0.1,0.4-0.2,0.7-0.3l0.7-0.2c0.5-0.1,1-0.3,1.5-0.3s1,0,1.5,0s1,0.2,1.5,0.3c0.5,0.1,1,0.3,1.4,0.5c1.8,0.8,3.3,2,4.6,3.5
		c1.2,1.5,2.1,3.1,2.7,4.8L271,101.7z"/>
</g>
<path class="st9" d="M262.3,155.6c11.6-2.9,0.2,18.9-11.6,18.1s-18.8-8.7-20.9-19.5c-0.8-4.5,3.3-2.5,3.3-2.5
	S251.7,158.3,262.3,155.6z"/>
<path class="st10" d="M246.9,164.7c-4.5-0.4-8.6,0.1-11.9,1.3c3.6,4.4,8.8,7.2,15.6,7.6c3.6,0.3,7.2-1.6,10-4.2
	C257.6,167,252.7,165.2,246.9,164.7z"/>
<path class="st11" d="M260.3,156c-10.8,1.5-27.3-4.3-27.3-4.3s-0.1,0-0.2-0.1c-0.3,1.4-0.7,3.7,0.5,4.5c1.3,1,10.6,4.2,24,4.7
	c1.1,0,2.1-0.8,2.3-1.9C259.7,157.9,260,156.9,260.3,156z"/>
<path class="st5" d="M141,285.8l34-5.7l13.4,48.7l19.8,35c0,0,110.5,14.2,98-46.6c-0.2-1.2-13.8-61.4-12.2-61.9
	c10-3.4,26.8-9.5,26.8-9.5s-7.7-37.3-17.9-39.7s-32.8-4.3-32.8-4.3s-6.4,29.8-40.7,36.2s-55.1-27.1-55.1-27.1S110.6,206.5,141,285.8
	z"/>
<path class="st12" d="M205.2,312.9c-0.8-6.9-12.2,6.8-18.9,8.5l2,7.5l19.8,35c0,0,52.6,6.8,81.1-9
	C289.3,354.8,213.4,379.9,205.2,312.9z"/>
<path class="st12" d="M157,283.2l-16,2.7c-15.2-39.8-6.8-58.5,5.3-67.2C122.4,246.3,157,283.2,157,283.2z"/>
<path class="st2" d="M172.7,312.5c0,0,69.7-23.7,90.1-31.8c20.4-8.2,13,6.4,13,6.4s-105.2,81.4-109.3,48.6
	C164.5,319.4,172.7,312.5,172.7,312.5z"/>
<path class="st11" d="M290.2,281.7c1.2,0.1,2.3,0.3,3.3,0.5l33.7-29.1l-13.2-9l-10.4,2.1l-39.8,31.6l9.7,9.3
	C278.1,283.3,284.2,281.2,290.2,281.7z"/>
<polygon class="st13" points="260.2,273.8 307.7,239.4 310.6,246.1 263.4,279 "/>
<polygon class="st14" points="310.6,246.1 327.2,253.2 326,247.4 307.7,239.4 "/>
<path class="st2" d="M262.1,280.9c0,0,8.5-10.2,10.2-23.1c1.7-12.6,7.3-16.4,7.1,1.6c-0.2,14.9,31.7-8.7,35.4-12.3
	c4.3-4.1,6-0.7,2.3,4.5s-12.4,12.2-12.4,12.2s11.6-1.9,13.3-2.8c1.8-0.9-5,11.8-8.7,20.2c-0.9,2.1-2.8,3.6-5,4.1l-11.5,2.5
	c0,0-6.4,0.3-14.2,0.9c-7.1,0.5-10.7,5.9-14.2-1S262.1,280.9,262.1,280.9z"/>
<path class="st3" d="M303.8,270.3c0,0,11.1-2.8,13-5.2l-1.2,2.9C315.7,268,311.1,269.1,303.8,270.3z"/>
<path class="st3" d="M312.3,274.8c-3.6,2.2-8.6,4.3-8.6,4.3c3-0.5,5.8-1.4,7.8-2.4C311.6,276.1,312.2,275.4,312.3,274.8z"/>
<path class="st3" d="M149.3,284.4l-7.7,1.3c8.3,29.3,21.3,59.2,36.8,57.6c3.2-0.3,8.9-1.3,13.4-3.7
	C168.1,340.1,156.8,309.8,149.3,284.4z"/>
<g>
	<g>
		<g>
			<g>
				<path class="st12" d="M135.4,233.7c-0.1,0.8-0.3,1.6-0.7,2.6l5.9,3.9l1.4-2.1L135.4,233.7z"/>
			</g>
		</g>
		<g>
			<g>
				<path class="st12" d="M138.1,252.8l-4,6.1c0.3,1.2,0.6,2.3,0.7,3.5l4-6.1l6.7,4.4l1.4-2.1L138.1,252.8z"/>
			</g>
		</g>
		<g>
			<g>
				<path class="st12" d="M142.9,273.4l-3.9,6c0.4,1,0.8,2,1,3l3.6-5.5l6.7,4.4l1.4-2.1L142.9,273.4z"/>
			</g>
		</g>
	</g>
	<g>
		<g>
			<g>
				<polygon class="st12" points="163.4,233.1 161.3,231.7 167.3,222.6 176.1,228.3 174.7,230.5 168,226.1 				"/>
			</g>
		</g>
		<g>
			<g>
				<polygon class="st12" points="168.2,253.7 166.1,252.3 172.1,243.2 180.9,248.9 179.5,251 172.9,246.6 				"/>
			</g>
		</g>
		<g>
			<g>
				<polygon class="st12" points="173,274.2 170.9,272.9 176.9,263.7 185.7,269.5 184.3,271.6 177.7,267.2 				"/>
			</g>
		</g>
		<g>
			<g>
				<path class="st12" d="M181.8,284.3l-3.9,6c0.3,0.6,0.5,1.2,0.6,1.9c0.2,0.4,0.3,0.8,0.4,1.2l3.6-5.5l6.7,4.4l1.4-2.1
					L181.8,284.3z"/>
			</g>
		</g>
		<g>
			<g>
				<path class="st12" d="M186.8,307.4c0.1,0,0.1,0,0.2,0c0.2,0,0.4-0.1,0.5-0.1c0.2-0.1,0.4-0.1,0.6-0.2c0.4-0.2,0.8-0.3,1.2-0.4
					l-2.7-1.8l-2.2,3.4c0.5-0.2,1.1-0.4,1.6-0.6C186.2,307.6,186.5,307.5,186.8,307.4z"/>
			</g>
		</g>
	</g>
	<g>
		<g>
			<g>
				<path class="st12" d="M204.3,236.4l-4.1,6.2l2.1,1.4l4.4-6.8C205.9,237,205.1,236.7,204.3,236.4z"/>
				<path class="st12" d="M207.7,237.5l5.9,3.9l1.4-2.1l-1.8-1.2C211.3,238.1,209.5,237.9,207.7,237.5z"/>
			</g>
		</g>
		<g>
			<g>
				<polygon class="st12" points="207.1,264.6 205,263.2 211,254.1 219.8,259.8 218.4,261.9 211.7,257.5 				"/>
			</g>
		</g>
		<g>
			<g>
				<polygon class="st12" points="211.9,285.1 209.8,283.8 215.8,274.6 224.6,280.4 223.2,282.5 216.5,278.1 				"/>
			</g>
		</g>
		<g>
			<g>
				<path class="st12" d="M228.1,320.5l4.7,3.1l1.4-2.1l-4.1-2.7C229.5,319.5,228.8,320,228.1,320.5z"/>
				<path class="st12" d="M219.8,325.1l1.8,1.2l2.2-3.4c-0.3,0.1-0.6,0.2-1,0.3C221.8,324,220.8,324.6,219.8,325.1z"/>
			</g>
		</g>
		<g>
			<g>
				<polygon class="st12" points="226.3,346.9 224.2,345.5 230.2,336.3 239,342.1 237.6,344.2 231,339.8 				"/>
			</g>
		</g>
		<g>
			<g>
				<path class="st12" d="M235.1,356.9l-5.3,8.1c0.6-0.1,1.3-0.1,1.9-0.1c0.4,0,0.7,0,1.1,0.1l3-4.6l6.7,4.4l1.4-2.1L235.1,356.9z"
					/>
			</g>
		</g>
	</g>
	<g>
		<g>
			<g>
				<polygon class="st12" points="241.1,254.9 239,253.5 245,244.4 253.8,250.2 252.4,252.3 245.7,247.9 				"/>
			</g>
		</g>
		<g>
			<g>
				<polygon class="st12" points="245.9,275.5 243.8,274.1 249.8,265 258.6,270.7 257.2,272.8 250.6,268.4 				"/>
			</g>
		</g>
		<g>
			<g>
				<polygon class="st12" points="255.6,316.6 253.5,315.2 259.5,306.1 268.2,311.9 266.8,314 260.2,309.6 				"/>
			</g>
		</g>
		<g>
			<g>
				<polygon class="st12" points="260.4,337.2 258.3,335.8 264.3,326.7 273,332.4 271.7,334.5 265,330.2 				"/>
			</g>
		</g>
		<g>
			<g>
				<polygon class="st12" points="265.2,357.8 263.1,356.4 269.1,347.2 277.9,353 276.5,355.1 269.8,350.7 				"/>
			</g>
		</g>
	</g>
	<g>
		<g>
			<g>
				<polygon class="st12" points="270.3,224.7 268.2,223.3 274.2,214.1 283,219.9 281.6,222 275,217.6 				"/>
			</g>
		</g>
		<g>
			<g>
				<polygon class="st12" points="275.1,245.2 273,243.9 279.1,234.7 287.8,240.5 286.4,242.6 279.8,238.2 				"/>
			</g>
		</g>
		<g>
			<g>
				<polygon class="st12" points="289.6,307 287.5,305.6 293.5,296.4 302.3,302.2 300.9,304.3 294.2,299.9 				"/>
			</g>
		</g>
		<g>
			<g>
				<path class="st12" d="M305.7,321.9v-0.1l-7.3-4.8l-6,9.1l2.1,1.4l4.6-7l6.7,4.4l0.6-1C306,323.3,305.8,322.7,305.7,321.9z"/>
			</g>
		</g>
		<g>
			<g>
				<path class="st12" d="M300.1,346.6L300.1,346.6c0.4-0.6,0.7-1.2,1-1.8c0.3-0.5,0.7-0.9,1.1-1.3l1.2-1.8c0.1-0.3,0.2-0.7,0.5-1.2
					c0.3-0.7,0.7-1.2,1.2-1.7l-1.9-1.3l-6,9.1l1.7,1.1C299.2,347.4,299.6,347,300.1,346.6z"/>
			</g>
		</g>
	</g>
	<g>
		<g>
			<g>
				<path class="st12" d="M305.7,208.4l-3.4,5.2l2.1,1.4l3.2-4.9C306.7,209.7,306.1,209.1,305.7,208.4z"/>
			</g>
		</g>
		<g>
			<g>
				<path class="st12" d="M315,226.3l-1.9-1.3l-6,9.1l2.1,1.4l4.6-7l2.4,1.6C315.7,228.9,315.3,227.6,315,226.3z"/>
			</g>
		</g>
	</g>
</g>
<path class="st2" d="M364,200.7c0,0,2.2-7.6,3.8-17.2c1.5-9.6,2.2-11.7-1-18.1s5.7-5,9.2,4.2l1,6l23.8-28.3c0,0,2.7-2.5,3.8-0.3
	c1.2,2.2-12.7,22-12.7,22s14.7,13,8.1,20.6s-21.3,19.9-26.5,17.3C368.2,204.2,364,200.7,364,200.7z"/>
<g>
	<g>
		<path class="st15" d="M388.4,152.8C388.4,152.8,388.3,152.8,388.4,152.8c-0.4-0.1-0.6-0.4-0.5-0.7l3.8-13.6
			c0.1-0.3,0.4-0.5,0.7-0.4c0.3,0.1,0.5,0.4,0.4,0.7l-3.8,13.6C388.9,152.6,388.6,152.8,388.4,152.8z"/>
	</g>
</g>
<g>
	<g>
		<path class="st15" d="M381.8,152.9c-0.2,0-0.5-0.2-0.5-0.4l-2.8-13.8c-0.1-0.3,0.1-0.6,0.4-0.6s0.6,0.1,0.7,0.4l2.8,13.8
			c0.1,0.3-0.1,0.6-0.4,0.6C381.9,152.9,381.9,152.9,381.8,152.9z"/>
	</g>
</g>
<g>
	<g>
		<path class="st15" d="M376,156.7c-0.1,0-0.3-0.1-0.4-0.2l-9.1-10.8c-0.2-0.2-0.2-0.6,0.1-0.8c0.2-0.2,0.6-0.2,0.8,0.1l9.1,10.8
			c0.2,0.2,0.2,0.6-0.1,0.8C376.3,156.7,376.2,156.7,376,156.7z"/>
	</g>
</g>
<path class="st16" d="M392.5,169.2c0.4-0.2,0.9-0.2,1.3,0.1c1.4,0.9,4.3,3.2,2.7,5c-2,2.3-14.4,10.7-17.4,10.4
	C376.3,184.3,381.1,175.2,392.5,169.2z"/>
<path class="st16" d="M396.7,174c0,0,4.8,2.5,1.9,5.2c-1.9,1.8-11.5,8.3-14.1,8.1C382,187,386.4,179.3,396.7,174z"/>
<path class="st16" d="M399.6,178.2c0,0,4.2,4.8,2.5,6.7s-11.1,6.9-13.6,6.5C386,191.1,389.4,183,399.6,178.2z"/>
</svg>
