<?xml version="1.0" encoding="utf-8"?>
<!-- Generator: Adobe Illustrator 24.3.0, SVG Export Plug-In . SVG Version: 6.00 Build 0)  -->
<svg version="1.1" id="Camada_1" xmlns="http://www.w3.org/2000/svg" xmlns:xlink="http://www.w3.org/1999/xlink" x="0px" y="0px"
	 viewBox="0 0 308.7058716 303.0588379" style="enable-background:new 0 0 308.7058716 303.0588379;" xml:space="preserve">
<style type="text/css">
	.st0{fill:#148260;}
</style>
<g>
	<path class="st0" d="M167.3012085,147.8634338V82.5868301l9.7437439-1.0195389v56.5653076l19.0486908-2.0003662v8.7112885
		L167.3012085,147.8634338z"/>
	<path class="st0" d="M224.2536926,141.8752289l-17.0870514,1.793869c-3.5877533,0.3742676-5.3816376-1.174408-5.3816376-4.6460114
		v-31.6961899c0-3.471611,1.7938843-5.3945541,5.3816376-5.7817154l17.0870514-1.7938843
		c3.5232239-0.3742599,5.3041992,1.1744156,5.3041992,4.6589279v31.7090988
		C229.5578918,139.5909271,227.7769318,141.5138702,224.2536926,141.8752289z M220.240036,108.1270447l-9.0597382,0.9550095
		v26.224205l9.0597382-0.9550171V108.1270447z"/>
	<path class="st0" d="M258.9826965,157.6716919l-16.5191803,1.7422638
		c-3.5877686,0.3742523-5.3816528-1.1744232-5.3816528-4.6460266v-6.7496338l9.2275085-0.967926v5.0332031l8.453186-0.8904877
		v-12.7765656l-9.7824554,1.0324554c-2.7230835,0.2839203-4.8525085-0.2581177-6.3882751-1.6390228
		c-1.5357819-1.3809052-2.2971954-3.3425598-2.2971954-5.9107666v-25.8112335c0-2.4520645,0.6839905-4.4266281,2.0390778-5.9365845
		c1.3679962-1.5099564,3.2393036-2.3875351,5.6139526-2.6327438c0.5678558-0.0645294,1.161499-0.0903397,1.7809906-0.103241
		c0.6194611-0.0129089,1.2260284,0.0129013,1.793869,0.0645218l7.2271576,0.6065674V96.537796l9.5759735-1.0066376v56.3588104
		C264.3385315,155.3744965,262.5575562,157.2974243,258.9826965,157.6716919z M254.762558,104.836113l-3.9362183-0.0129089
		c-0.2839203-0.0258102-0.6065674-0.0129089-0.967926,0.0258102c-0.3613434,0.0387192-0.6839905,0.0774307-0.9679108,0.1032486
		c-2.0132751,0.2064896-3.0199127,1.342186-3.0199127,3.3941727v20.1714783c0,2.1036224,1.0324554,3.0457306,3.0973358,2.8263245
		l5.7817078-0.6065674V104.836113H254.762558z"/>
	<path class="st0" d="M192.5962219,212.8561096c-1.5357819,1.6906281-3.6781158,2.6972656-6.414093,2.9811859l-19.3971405,2.039093
		v-65.289505l9.5630646-1.0066376v24.701355l10.259964-2.4391632c0.5162048-0.1677704,1.0324402-0.3097382,1.5873718-0.4258881
		c0.542038-0.1161499,1.0324554-0.1935883,1.4841461-0.2452087c3.4716187-0.3613586,5.2138519,1.161499,5.2138519,4.5814972
		v28.7149963C194.8934174,209.0231323,194.1319885,211.1525574,192.5962219,212.8561096z M185.330368,181.7406616
		l-8.9822998,1.1098938v26.056427l5.8978577-0.6194611c2.0519867-0.2194061,3.0715485-1.3679962,3.0715485-3.4845123v-23.0623474
		H185.330368z"/>
	<path class="st0" d="M224.2149658,211.8365631l-17.0870361,1.793869c-3.5877533,0.3742676-5.3816376-1.174408-5.3816376-4.6460114
		v-31.7090912c0-3.4716187,1.7938843-5.3945465,5.3816376-5.781723l17.0870361-1.7938843
		c3.5232391-0.3742676,5.3042145,1.1744232,5.3042145,4.6589355v31.7090912
		C229.5062866,209.5393677,227.7382202,211.4622955,224.2149658,211.8365631z M220.2013245,178.07547l-9.0597534,0.9550171
		v26.2242126l9.0597534-0.9550171V178.07547z"/>
	<path class="st0" d="M258.9052734,208.1971741l-17.0870514,1.7938843
		c-3.5877533,0.3742676-5.3816376-1.1744232-5.3816376-4.6460266v-31.7090912c0-3.4716187,1.7938843-5.3945465,5.3816376-5.781723
		l17.0870514-1.793869c3.5232239-0.3742676,5.3041992,1.174408,5.3041992,4.6589203V202.42836
		C264.2094727,205.8999786,262.4284973,207.8229065,258.9052734,208.1971741z M254.8916168,174.4360962l-9.0597382,0.9550171
		v26.2241974l9.0597382-0.9550018V174.4360962z"/>
	<path class="st0" d="M289.0656738,205.0223999l-8.3757324-18.4292145v19.3197021l-9.5630798,1.0066376v-65.3024139
		l9.5630798-1.0066376v39.2201691l7.5239563-16.8676453l10.0018616-1.0453491v0.1806793l-9.7437439,20.1585693
		l10.7632751,21.5136566v0.1677704L289.0656738,205.0223999z"/>
	<g>
		<path class="st0" d="M133.8240509,221.3350983L47.279007,230.433548c-4.1943245,0.438797-7.6143112-2.6069183-7.6143112-6.8141632
			V95.9957657l109.6977158-11.5247116v119.6995697C149.3624115,212.7399597,142.3933868,220.4317017,133.8240509,221.3350983z
			 M47.7823219,103.2487183v119.5188904l86.0546417-9.5372467c4.0910645-0.4258881,7.4207153-4.1168823,7.4207153-8.207962
			V93.4275436L47.7823219,103.2487183z"/>
	</g>
	<g>
		<path class="st0" d="M39.0581245,99.6996765"/>
	</g>
	<path class="st0" d="M108.9420319,72.2494354l-88.6615753,9.3178558c-2.2584839,0.2322998-4.1039867,2.2713852-4.1039867,4.5298691
		v128.2301941c0,2.6327362,1.4067135,4.9686584,3.6910057,6.1043549l75.8591995,36.7680969v-32.8576965l-8.1047287,0.8517761
		v18.6873322l-63.3407516-30.3927307V95.5182571l16.8031082,8.3628387l4.1814194-7.3691101l-15.6545086-7.7949905
		l79.3308182-8.3370285V72.2494354z"/>
	<g>
		<path class="st0" d="M53.0090942,228.3041229l36.1228104-3.4845123l-0.7098083,12.4926453
			c0,0,2.142334,8.9306793,0.7098083,8.8919678C87.7122879,246.1913147,53.0090942,228.3041229,53.0090942,228.3041229z"/>
	</g>
	<polygon class="st0" points="271.1268921,113.9345703 280.6899414,112.9279327 280.6899414,122.4393692 271.1268921,123.4460068 	
		"/>
	<polygon class="st0" points="82.2145004,172.6551056 75.632637,166.7701569 121.2410812,116.3608246 127.8229446,122.2457886 	"/>
	<polygon class="st0" points="57.6680222,150.6897583 64.2369766,143.4239044 88.7834625,165.3892517 82.2145004,172.6551056 	"/>
	<polygon class="st0" points="115.9368744,144.3789063 122.5058289,150.2509766 93.2746124,182.5537109 86.705658,176.6687622 	"/>
	<polygon class="st0" points="112.3620148,170.4611664 118.9438858,176.3332062 104.3476257,192.4652252 97.7786713,186.5802765 	
		"/>
	<polygon class="st0" points="111.5747681,82.2125702 111.5102463,82.1996613 31.5470562,90.6786499 33.4699936,91.8272476 
		114.00103,83.1933975 	"/>
	<polygon class="st0" points="117.9501419,84.7807846 35.3929291,93.5436935 37.3158684,94.6922989 120.415123,85.7745209 	"/>
</g>
</svg>
