<?xml version="1.0" encoding="utf-8"?>
<!-- Generator: Adobe Illustrator 24.3.0, SVG Export Plug-In . SVG Version: 6.00 Build 0)  -->
<svg version="1.1" id="Camada_1" xmlns="http://www.w3.org/2000/svg" xmlns:xlink="http://www.w3.org/1999/xlink" x="0px" y="0px"
	 viewBox="0 0 475.3999939 405.1356506" style="enable-background:new 0 0 475.3999939 405.1356506;" xml:space="preserve">
<style type="text/css">
	.st0{fill:#D8EFE8;}
	.st1{fill:#1B3055;}
	.st2{fill:#AA5551;}
	.st3{fill:#853F38;}
	.st4{fill:#241A25;}
	.st5{fill:#F7AD5A;}
	.st6{fill:#E7913C;}
	.st7{fill:#362836;}
	.st8{fill:#180908;}
	.st9{fill:#9D3A2D;}
	.st10{fill:#EF806D;}
	.st11{fill:#FFFFFF;}
	.st12{fill:#F2913B;}
	.st13{fill:#B9B9B9;}
	.st14{fill:#E3E4E3;}
	.st15{fill:#3BB18A;}
	.st16{fill:#9F4F4B;}
</style>
<path class="st0" d="M5.1999998,294.0357056c-16.3999996-124.6000061,201.1000061-34.3999939,278-221.1999817
	C331.1000061-43.3642693,516.3000488,181.43573,460.4000244,294.0357361
	C380.7999878,454.6357117,12,345.7356873,5.1999998,294.0357056z"/>
<path class="st1" d="M208.8000031,358.7356873c0,0-6.8000031,13.7000122-9,29.5999756
	c-2.1000061,15.9000244,48.5,16.7999878,48.5,16.7999878s98.1999969-0.5,77.4000092-38.4000244s-25.5-33.5999146-25.5-33.5999146
	L208.8000031,358.7356873z"/>
<path class="st2" d="M319.2999878,289.1357117c0,0,32.6000061-66.6000061,42.2999878-86.2999878
	c9.7000122-19.7000122,16.7000122-0.7000122,16.7000122-0.7000122S342.8999939,329.5357361,326,309.8357239
	C315.2999878,297.4356995,319.2999878,289.1357117,319.2999878,289.1357117z"/>
<path class="st2" d="M319.8999939,243.7357178c0,0,14.8999939,36.8999939,16.2999878,41.1000061
	s2.6000061,24.1000061-5.5,26.8999939c-15.8999939,5.5-29.7000122-39.3999939-35.8999939-66.6999817
	S319.8999939,243.7357178,319.8999939,243.7357178z"/>
<path class="st3" d="M302.1000061,239.3357239c-0.6000061-2.6000061-0.7999878-4.7999878-0.7999878-6.5
	c-5.1000061-1-8.5,1.3999939-6.1000061,12.2999878c6.2000122,27.2999878,20.1000061,72.1000061,35.8999939,66.7000122
	c2.2000122-0.7999878,3.7000122-2.7999878,4.7000122-5.3999939C320.8999939,307.3357239,308,265.3357239,302.1000061,239.3357239z"
	/>
<path class="st2" d="M169.8999939,262.6357117c0,0,12.6999969,44.2999878,14.3999939,49.2999878
	c1.6000061,4.8999939,3,27.7000122-6.3000031,30.9000244c-18.1999969,6.2999878-34.0999908-45.2000122-41.1999969-76.5
	C129.6000061,234.9356995,169.8999939,262.6357117,169.8999939,262.6357117z"/>
<path class="st4" d="M165.6999969,56.4357185c0.3999939-1.5,14.3999939-13.5,4.3999939-19.6999969c0,0,11.3000031-20.8000031-2-27.5
	s-22.3000031,5.8999939-22.3000031,5.8999939s2.8000031-13.1999969-2.6999969-15s-5.3000031,14.8999939-5.3000031,14.8999939
	S124.5999908-4.164288,106.9999847,7.135715c-17.5999985,11.1999969,1,29.5,1,29.5s-12.6999969-12.3000031-17.0999985-8.3999939
	c-4.4000015,3.8999939,11.9000015,15.8000031,11.9000015,15.8000031s-14.5-6.1999969-16.4000015,0
	c-1.8000031,6.1000061,15.5999985,7.3999939,15.5999985,7.3999939s-13.0999985-0.1000061-14.6999969,7.5
	s14.4000015,9.1000023,14.4000015,9.1000023s-14.5999985,12.0000153-2.4000015,27.5000153
	s24.9000015-4.2999878,24.9000015-4.2999878s-5.6999969,16.8999939-0.1999969,19.2999878
	C129.5,112.93573,133.5,88.43573,133.5,88.43573s7.6999969,11.7000122,12.3999939,7.5s-4.1999969-16-4.1999969-16
	L165.6999969,56.4357185z"/>
<path class="st5" d="M187.1999969,54.6357155c0,0-22.1999969-3.8999939-27.8000031-2.1000061
	c-11.5,3.5-19.6999969,22.1000023-16.6000061,30.6000023s23.1999969,20.8999939,23.1999969,20.8999939L187.1999969,54.6357155z"/>
<path class="st6" d="M143.6000061,70.8357239c-1.5,4.6000061-1.8999939,9.1000061-0.8000031,12.2999878
	C145.9000092,91.6357117,166,104.0357056,166,104.0357056l8.8999939-20.7000122
	C163.3999939,82.0357056,152.6999969,78.4356995,143.6000061,70.8357239z"/>
<g>
	<g>
		<g>
			<g>
				<path class="st2" d="M261.2999878,267.0357056c-21.8999939,5.1000061-99.8999939-17.5-121.8999939-12.7999878
					c-2.6999969-14.3999939-2.8999939-27.1000061,3.1999969-31.7000122c16.8999939-13,61.4000092,2.1000061,58-36.2999878
					c-3.5-39.8999939-5.3000031-49.2999878-5.3000031-49.2999878l47.3999939,28.2000122c0,0-9.1000061,14.7000122,1.8000031,34.5
					c10,18,39.6999969-8.1000061,52.8000031,13.7999878C267.2999878,223.9356995,292.3999939,259.7357178,261.2999878,267.0357056z"
					/>
				<path class="st3" d="M242.5,195.4356995c-19,3.6000061-36.8999939-5.8999939-43.1000061-23
					c-2.6999969-28.2999878-4.1000061-35.3999939-4.1000061-35.3999939l47.3999939,28.2000122
					C242.6999969,165.1357117,234.8999939,177.8357239,242.5,195.4356995z"/>
			</g>
		</g>
		<path class="st2" d="M224.8000031,67.7357178c0,0,40.5999908-10.6000023,50.0999908,35.2999878
			c9.5,45.7999878-1.3999939,80.6000061-28.3000031,85.1999817c-30.5,5.2999878-53.5-19.2999878-58.5-56.5
			C184.6000061,105.9356995,182.8000031,71.2357178,224.8000031,67.7357178z"/>
	</g>
	<g>
		<g>
			<g>
				<path class="st7" d="M178,133.0357056c0,0,12.5-13.2999878,18.1000061,14.7999878c0,0,10.5-11.6000061-1.1999969-23.7999878
					c0,0,20-11.2000122,9.6999969-36.6000061c0,0,42.1999969-26.6000023,60.8999939-6.6000061
					c0,0-31-50.4999962-80.6000061-25.7999992C144.1000061,75.3357239,178,133.0357056,178,133.0357056z"/>
			</g>
		</g>
		<g>
			<g>
				<path class="st4" d="M172,65.2357178c5.6000061,17.8999939,18,36.1000061,34.5,43.2999878
					c-3,10.6000061-11.6999969,15.5-11.6999969,15.5C206.5,136.2357178,196,147.8356934,196,147.8356934
					c-5.5-28-18.1000061-14.7999878-18.1000061-14.7999878S152.6999969,90.1357117,172,65.2357178z"/>
			</g>
		</g>
	</g>
</g>
<g>
	<path class="st3" d="M252,113.9356995c0.8000031,2.2000122,1.6999969,4.3999939,2.5,6.5
		c0.8000031,2.2000122,1.7000122,4.2999878,2.7000122,6.3999939c0.8999939,2.1000061,1.8999939,4.2000122,3.1000061,6.1000061
		c0.6000061,1,1.2000122,1.8999939,1.8999939,2.7999878c0.7000122,0.7999878,1.5,1.6000061,2.3999939,2l1,0.3999939
		l-0.7000122,0.7000122c-1.3999939,1.2999878-2.7999878,2.3999939-4.2999878,3.5c-0.7999878,0.5-1.6000061,1-2.3999939,1.3999939
		s-1.7000122,0.7999878-2.6000061,1c0.7999878-0.3999939,1.6000061-0.7999878,2.2999878-1.3999939
		c0.7000122-0.5,1.3999939-1.1000061,2.1000061-1.7000122c1.3999939-1.2000122,2.7000122-2.3999939,3.8999939-3.7000122
		l0.2999878,1.1000061c-1.2999878-0.3999939-2.2999878-1.2999878-3.1000061-2.2000122
		c-0.7999878-0.8999939-1.5-1.8999939-2.1000061-2.8999939c-1.2000122-2-2.2000122-4.2000122-3.1000061-6.3999939
		c-0.8999939-2.2000122-1.6000061-4.3999939-2.3000031-6.7000122C252.8999939,118.5357056,252.3999939,116.2357178,252,113.9356995z
		"/>
</g>
<g>
	<path class="st2" d="M201.1000061,157.5357056c0,0-9.6999969-6.7999878-9-22.7999878c0,0-11.1999969-14.1000061-15.5-1.7000122
		C171.5,147.1357117,189.6000061,171.6357117,201.1000061,157.5357056z"/>
	<g>
		<path class="st3" d="M193.1999969,158.0357056c-0.8999939-0.3999939-1.6999969-0.8999939-2.6000061-1.3999939
			c-0.8000031-0.5-1.6000061-1.2000122-2.3000031-2c-0.6000061-0.7999878-1.1999969-1.7999878-1.1999969-3
			c0.1000061-1.2000122,1-2.2000122,1.8000031-2.7999878l-0.3000031,0.6000061c-0.3000031-2.5-0.6999969-5-1.1000061-7.5
			c-0.5-2.3999939-1-5-2.1000061-7c-0.3000031-0.5-0.6000061-0.8999939-0.8999939-1.1000061
			c-0.1999969-0.1000061-0.3000031-0.1000061-0.5-0.1000061h-0.1000061l-0.1999969,0.1000061l-0.3999939,0.1000061
			c-1.1000061,0.3999939-2.1000061,1.1000061-2.8000031,2s-1.1000061,2.1000061-1.1000061,3.2999878
			c0,1.2000122,0.3000031,2.5,0.8000031,3.6000061c-0.8000031-1-1.3000031-2.2999878-1.5-3.6000061
			c-0.1999969-1.2999878,0.1000061-2.7999878,0.8000031-4c0.8000031-1.2000122,1.8999939-2.1000061,3.1999969-2.7000122
			l0.5-0.2000122c0.1999969-0.1000061,0.3000031-0.1000061,0.6000061-0.2000122c0.5-0.1000061,1,0,1.3999939,0.2000122
			c0.8000031,0.3999939,1.3000031,1.1000061,1.6999969,1.7000122c0.6999969,1.2000122,1.1999969,2.5,1.5,3.7999878
			c0.3999939,1.2999878,0.6000061,2.5,0.8000031,3.7999878c0.5,2.6000061,0.6999969,5.1000061,0.8000031,7.7000122v0.3999939
			l-0.3000031,0.2000122c-0.6999969,0.5-1.3000031,1.1000061-1.3999939,1.7999878
			c-0.1000061,0.7000122,0.1999969,1.6000061,0.6999969,2.2999878c0.5,0.7999878,1.1000061,1.5,1.8000031,2.1000061
			C191.6000061,156.9356995,192.3999939,157.5357056,193.1999969,158.0357056z"/>
	</g>
</g>
<ellipse transform="matrix(0.9653934 -0.2607982 0.2607982 0.9653934 -22.6421776 65.6129684)" class="st8" cx="235.9108429" cy="118.1229935" rx="3.3000257" ry="5.1000414"/>
<path class="st8" d="M267.7999878,110.3357239C268.5,113.0357361,267.6999817,115.6357117,266,116.1357117
	s-3.7999878-1.3999939-4.5-4.1000061s0.1000061-5.2999878,1.7999878-5.7999878
	C265.1000061,105.8357239,267.1000061,107.6357117,267.7999878,110.3357239z"/>
<g>
	<path d="M221.8999939,118.4356995c-0.5-2.2000122-0.5-4.3999939-0.1999969-6.6000061s1.1000061-4.5,2.5-6.3999939
		s3.3000031-3.5,5.6000061-4.1000061s4.6000061-0.7000122,6.8000031-0.1000061v0.2000122
		c-2.1999969,0.5-4.3000031,1-6.1000061,1.7999878c-1.8999939,0.7999878-3.6999969,1.7000122-5,3.2999878
		c-1.3000031,1.5-2.1999969,3.5-2.6999969,5.6000061s-0.6999969,4.2999878-0.6000061,6.3999939L221.8999939,118.4356995z"/>
</g>
<g>
	<path d="M271,101.7357178c-0.8999939-1.6000061-2-3-3.2999878-4.2000122s-2.7999878-2.2000122-4.3999939-2.6000061
		c-1.6000061-0.5-3.2999878-0.2999878-4.8999939,0l-0.6000061,0.1000061c-0.2000122,0-0.3999939,0.1000061-0.6000061,0.2000122
		c-0.3999939,0.1000061-0.7999878,0.2000122-1.3000031,0.2999878c-0.8000031,0.2999878-1.6999969,0.6000061-2.6000061,0.7999878
		l-0.1000061-0.2000122c0.6999969-0.7000122,1.3999939-1.2999878,2.1999969-1.8999939
		c0.3999939-0.2999878,0.7999878-0.5,1.2999878-0.7000122c0.2000122-0.1000061,0.3999939-0.2000122,0.7000122-0.2999878
		l0.7000122-0.2000122c0.5-0.1000061,1-0.2999878,1.5-0.2999878s1,0,1.5,0s1,0.2000122,1.5,0.2999878
		c0.5,0.1000061,1,0.2999878,1.3999939,0.5c1.7999878,0.7999878,3.2999878,2,4.6000061,3.5
		c1.2000122,1.5,2.1000061,3.1000061,2.7000122,4.7999878L271,101.7357178z"/>
</g>
<path class="st9" d="M262.2999878,155.6357117c11.6000061-2.8999939,0.2000122,18.8999939-11.6000061,18.1000061
	s-18.8000031-8.7000122-20.8999939-19.5c-0.8000031-4.5,3.3000031-2.5,3.3000031-2.5
	S251.6999969,158.3357239,262.2999878,155.6357117z"/>
<path class="st10" d="M246.8999939,164.7357178c-4.5-0.3999939-8.6000061,0.1000061-11.8999939,1.2999878
	c3.6000061,4.3999939,8.8000031,7.2000122,15.6000061,7.6000061c3.6000061,0.2999878,7.2000122-1.6000061,10-4.2000122
	C257.6000061,167.0357056,252.6999969,165.2357178,246.8999939,164.7357178z"/>
<path class="st11" d="M260.2999878,156.0357056c-10.8000031,1.5-27.3000031-4.2999878-27.3000031-4.2999878
	s-0.1000061,0-0.1999969-0.1000061c-0.3000031,1.3999939-0.6999969,3.7000122,0.5,4.5
	c1.3000031,1,10.6000061,4.2000122,24,4.7000122c1.1000061,0,2.1000061-0.7999878,2.2999878-1.8999939
	C259.7000122,157.9356995,260,156.9356995,260.2999878,156.0357056z"/>
<path class="st5" d="M141,285.8357239l34-5.7000122l13.3999939,48.7000122l19.8000031,35
	c0,0,110.5000153,14.2000122,98.0000153-46.6000061C306,316.0357056,292.4000244,255.8357239,294,255.3357239
	c10-3.3999939,26.7999878-9.5,26.7999878-9.5s-7.7000122-37.2999878-17.8999939-39.7000122
	s-32.7999878-4.2999878-32.7999878-4.2999878s-6.3999939,29.7999878-40.6999969,36.2000122
	S174.3000183,210.93573,174.3000183,210.93573S110.5999985,206.5357056,141,285.8357239z"/>
<path class="st12" d="M205.1999969,312.9356995c-0.8000031-6.8999939-12.1999969,6.7999878-18.8999939,8.5l2,7.5l19.8000031,35
	c0,0,52.6000061,6.7999878,81.1000061-9C289.2999878,354.8357239,213.3999939,379.9356995,205.1999969,312.9356995z"/>
<path class="st12" d="M157,283.2357178l-16,2.7000122c-15.1999969-39.7999878-6.8000031-58.5,5.3000031-67.1999817
	C122.4000015,246.3357239,157,283.2357178,157,283.2357178z"/>
<path class="st2" d="M172.6999969,312.5357056c0,0,69.6999969-23.7000122,90.0999908-31.7999878
	c20.3999939-8.2000122,13,6.3999939,13,6.3999939s-105.1999969,81.4000244-109.3000031,48.5999756
	C164.5,319.4356995,172.6999969,312.5357056,172.6999969,312.5357056z"/>
<path class="st11" d="M290.2000122,281.7357178c1.2000122,0.1000061,2.2999878,0.2999878,3.2999878,0.5l33.7000122-29.1000061
	l-13.2000122-9l-10.3999939,2.1000061l-39.7999878,31.6000061l9.7000122,9.2999878
	C278.1000061,283.3357239,284.2000122,281.2357178,290.2000122,281.7357178z"/>
<polygon class="st13" points="260.2000122,273.8357239 307.7000122,239.4356995 310.6000061,246.1357117 263.3999939,279.0357056 
	"/>
<polygon class="st14" points="310.6000061,246.1357117 327.2000122,253.2357178 326,247.4356995 307.7000122,239.4356995 "/>
<path class="st2" d="M262.1000061,280.9356995c0,0,8.5-10.2000122,10.2000122-23.1000061
	c1.7000122-12.6000061,7.2999878-16.3999939,7.1000061,1.6000061c-0.2000122,14.8999939,31.7000122-8.7000122,35.3999939-12.2999878
	c4.2999878-4.1000061,6-0.7000122,2.2999878,4.5s-12.3999939,12.2000122-12.3999939,12.2000122
	S316.3000183,261.93573,318,261.0357361c1.7999878-0.8999939-5,11.7999878-8.7000122,20.2000122
	c-0.8999939,2.1000061-2.7999878,3.6000061-5,4.1000061l-11.5,2.5c0,0-6.3999939,0.2999878-14.2000122,0.8999939
	c-7.1000061,0.5-10.7000122,5.8999939-14.2000122-1S262.1000061,280.9356995,262.1000061,280.9356995z"/>
<path class="st3" d="M303.7999878,270.3357239c0,0,11.1000061-2.7999878,13-5.2000122l-1.2000122,2.8999939
	C315.7000122,268.0357056,311.1000061,269.1357117,303.7999878,270.3357239z"/>
<path class="st3" d="M312.2999878,274.8357239c-3.6000061,2.2000122-8.6000061,4.2999878-8.6000061,4.2999878
	c3-0.5,5.7999878-1.3999939,7.7999878-2.3999939C311.6000061,276.1357117,312.2000122,275.4356995,312.2999878,274.8357239z"/>
<path class="st3" d="M149.3000031,284.4356995l-7.6999969,1.2999878
	c8.3000031,29.2999878,21.3000031,59.2000122,36.8000031,57.5999756c3.1999969-0.2999878,8.8999939-1.2999878,13.3999939-3.7000122
	C168.1000061,340.1357117,156.8000031,309.8357239,149.3000031,284.4356995z"/>
<g>
	<g>
		<g>
			<g>
				<path class="st12" d="M135.3999939,233.7357178c-0.1000061,0.7999878-0.3000031,1.6000061-0.6999969,2.6000061
					l5.8999939,3.8999939l1.3999939-2.1000061L135.3999939,233.7357178z"/>
			</g>
		</g>
		<g>
			<g>
				<path class="st12" d="M138.1000061,252.8357239l-4,6.1000061c0.3000031,1.2000122,0.6000061,2.2999878,0.6999969,3.5
					l4-6.1000061L145.5,260.7357178l1.3999939-2.1000061L138.1000061,252.8357239z"/>
			</g>
		</g>
		<g>
			<g>
				<path class="st12" d="M142.8999939,273.4356995l-3.8999939,6c0.3999939,1,0.8000031,2,1,3l3.6000061-5.5l6.6999969,4.3999939
					l1.3999939-2.1000061L142.8999939,273.4356995z"/>
			</g>
		</g>
	</g>
	<g>
		<g>
			<g>
				<polygon class="st12" points="163.3999939,233.1357117 161.3000031,231.7357178 167.3000031,222.6357117 
					176.1000061,228.3357239 174.6999969,230.5357056 168,226.1357117 				"/>
			</g>
		</g>
		<g>
			<g>
				<polygon class="st12" points="168.1999969,253.7357178 166.1000061,252.3357239 172.1000061,243.2357178 
					180.8999939,248.9356995 179.5,251.0357056 172.8999939,246.6357117 				"/>
			</g>
		</g>
		<g>
			<g>
				<polygon class="st12" points="173,274.2357178 170.8999939,272.9356995 176.8999939,263.7357178 185.6999969,269.5357056 
					184.3000031,271.6357117 177.6999969,267.2357178 				"/>
			</g>
		</g>
		<g>
			<g>
				<path class="st12" d="M181.8000031,284.3357239l-3.8999939,6c0.3000031,0.6000061,0.5,1.2000122,0.6000061,1.8999939
					c0.1999969,0.3999939,0.3000031,0.7999878,0.3999939,1.2000122l3.6000061-5.5l6.6999969,4.3999939l1.3999939-2.1000061
					L181.8000031,284.3357239z"/>
			</g>
		</g>
		<g>
			<g>
				<path class="st12" d="M186.8000031,307.4356995c0.1000061,0,0.1000061,0,0.1999969,0
					c0.1999969,0,0.3999939-0.1000061,0.5-0.1000061c0.1999969-0.1000061,0.3999939-0.1000061,0.6000061-0.2000122
					c0.3999939-0.2000122,0.8000031-0.2999878,1.1999969-0.3999939l-2.6999969-1.7999878l-2.1999969,3.3999939
					c0.5-0.2000122,1.1000061-0.3999939,1.6000061-0.6000061C186.1999969,307.6357117,186.5,307.5357056,186.8000031,307.4356995z"
					/>
			</g>
		</g>
	</g>
	<g>
		<g>
			<g>
				<path class="st12" d="M204.3000031,236.4356995l-4.1000061,6.2000122l2.1000061,1.3999939l4.3999939-6.7999878
					C205.8999939,237.0357056,205.1000061,236.7357178,204.3000031,236.4356995z"/>
				<path class="st12" d="M207.6999969,237.5357056l5.8999939,3.8999939l1.3999939-2.1000061l-1.8000031-1.2000122
					C211.3000031,238.1357117,209.5,237.9356995,207.6999969,237.5357056z"/>
			</g>
		</g>
		<g>
			<g>
				<polygon class="st12" points="207.1000061,264.6357117 205,263.2357178 211,254.1357117 219.8000031,259.8357239 
					218.3999939,261.9356995 211.6999969,257.5357056 				"/>
			</g>
		</g>
		<g>
			<g>
				<polygon class="st12" points="211.8999939,285.1357117 209.8000031,283.8357239 215.8000031,274.6357117 
					224.6000061,280.4356995 223.1999969,282.5357056 216.5,278.1357117 				"/>
			</g>
		</g>
		<g>
			<g>
				<path class="st12" d="M228.1000061,320.5357056l4.6999969,3.1000061l1.3999939-2.1000061l-4.1000061-2.7000122
					C229.5,319.5357056,228.8000031,320.0357056,228.1000061,320.5357056z"/>
				<path class="st12" d="M219.8000031,325.1357117l1.8000031,1.2000122l2.1999969-3.3999939
					c-0.3000031,0.1000061-0.6000061,0.2000122-1,0.2999878
					C221.8000031,324.0357056,220.8000031,324.6357117,219.8000031,325.1357117z"/>
			</g>
		</g>
		<g>
			<g>
				<polygon class="st12" points="226.3000031,346.9356995 224.1999969,345.5357361 230.1999969,336.3357239 239,342.1357117 
					237.6000061,344.2356873 231,339.8357239 				"/>
			</g>
		</g>
		<g>
			<g>
				<path class="st12" d="M235.1000061,356.9356995l-5.3000031,8.0999756
					c0.6000061-0.0999756,1.3000031-0.0999756,1.8999939-0.0999756c0.3999939,0,0.6999969,0,1.1000061,0.0999756l3-4.5999756
					L242.5,364.8357239l1.3999939-2.0999756L235.1000061,356.9356995z"/>
			</g>
		</g>
	</g>
	<g>
		<g>
			<g>
				<polygon class="st12" points="241.1000061,254.9356995 239,253.5357056 245,244.4356995 253.8000031,250.2357178 
					252.3999939,252.3357239 245.6999969,247.9356995 				"/>
			</g>
		</g>
		<g>
			<g>
				<polygon class="st12" points="245.8999939,275.5357056 243.8000031,274.1357117 249.8000031,265.0357056 
					258.6000061,270.7357178 257.2000122,272.8357239 250.6000061,268.4356995 				"/>
			</g>
		</g>
		<g>
			<g>
				<polygon class="st12" points="255.6000061,316.6357117 253.5,315.2357178 259.5,306.1357117 268.2000122,311.9356995 
					266.7999878,314.0357056 260.2000122,309.6357117 				"/>
			</g>
		</g>
		<g>
			<g>
				<polygon class="st12" points="260.3999939,337.2356873 258.2999878,335.8357239 264.2999878,326.7356873 273,332.4356995 
					271.7000122,334.5357361 265,330.2356873 				"/>
			</g>
		</g>
		<g>
			<g>
				<polygon class="st12" points="265.2000122,357.8357239 263.1000061,356.4356995 269.1000061,347.2356873 
					277.8999939,353.0357361 276.5,355.1357117 269.7999878,350.7356873 				"/>
			</g>
		</g>
	</g>
	<g>
		<g>
			<g>
				<polygon class="st12" points="270.2999878,224.7357178 268.2000122,223.3357239 274.2000122,214.1357117 283,219.9356995 
					281.6000061,222.0357056 275,217.6357117 				"/>
			</g>
		</g>
		<g>
			<g>
				<polygon class="st12" points="275.1000061,245.2357178 273,243.9356995 279.1000061,234.7357178 287.7999878,240.5357056 
					286.3999939,242.6357117 279.7999878,238.2357178 				"/>
			</g>
		</g>
		<g>
			<g>
				<polygon class="st12" points="289.6000061,307.0357056 287.5,305.6357117 293.5,296.4356995 302.2999878,302.2357178 
					300.8999939,304.3357239 294.2000122,299.9356995 				"/>
			</g>
		</g>
		<g>
			<g>
				<path class="st12" d="M305.7000122,321.9356995v-0.1000061l-7.2999878-4.7999878l-6,9.1000061l2.1000061,1.4000244l4.6000061-7
					l6.7000122,4.3999939l0.6000061-1C306,323.3357239,305.7999878,322.7357178,305.7000122,321.9356995z"/>
			</g>
		</g>
		<g>
			<g>
				<path class="st12" d="M300.1000061,346.6357117L300.1000061,346.6357117c0.3999939-0.5999756,0.7000122-1.2000122,1-1.7999878
					c0.2999878-0.5,0.7000122-0.9000244,1.1000061-1.2999878l1.2000122-1.7999878
					c0.1000061-0.2999878,0.2000122-0.7000122,0.5-1.2000122c0.2999878-0.7000122,0.7000122-1.2000122,1.2000122-1.7000122
					l-1.8999939-1.2999878l-6,9.0999756l1.7000122,1.0999756
					C299.2000122,347.4356995,299.6000061,347.0357361,300.1000061,346.6357117z"/>
			</g>
		</g>
	</g>
	<g>
		<g>
			<g>
				<path class="st12" d="M305.7000122,208.4356995l-3.3999939,5.2000122l2.1000061,1.3999939l3.2000122-4.8999939
					C306.7000122,209.7357178,306.1000061,209.1357117,305.7000122,208.4356995z"/>
			</g>
		</g>
		<g>
			<g>
				<path class="st12" d="M315,226.3357239l-1.8999939-1.2999878l-6,9.1000061l2.1000061,1.3999939l4.6000061-7l2.3999939,1.6000061
					C315.7000122,228.9356995,315.2999878,227.6357117,315,226.3357239z"/>
			</g>
		</g>
	</g>
</g>
<path class="st2" d="M364,200.7357178c0,0,2.2000122-7.6000061,3.7999878-17.2000122
	c1.5-9.6000061,2.2000122-11.7000122-1-18.1000061s5.7000122-5,9.2000122,4.2000122l1,6l23.7999878-28.2999878
	c0,0,2.7000122-2.5,3.7999878-0.2999878c1.2000122,2.2000122-12.7000122,22-12.7000122,22s14.7000122,13,8.1000061,20.6000061
	s-21.2999878,19.8999939-26.5,17.2999878C368.2000122,204.2357178,364,200.7357178,364,200.7357178z"/>
<g>
	<g>
		<path class="st15" d="M388.3999939,152.8357239C388.3999939,152.8357239,388.2999878,152.8357239,388.3999939,152.8357239
			c-0.3999939-0.1000061-0.6000061-0.3999939-0.5-0.7000122l3.7999878-13.6000061
			c0.1000061-0.2999878,0.3999939-0.5,0.7000122-0.3999939c0.2999878,0.1000061,0.5,0.3999939,0.3999939,0.7000122L389,152.43573
			C388.8999939,152.6357117,388.6000061,152.8357239,388.3999939,152.8357239z"/>
	</g>
</g>
<g>
	<g>
		<path class="st15" d="M381.7999878,152.9356995c-0.2000122,0-0.5-0.2000122-0.5-0.3999939L378.5,138.7357178
			c-0.1000061-0.2999878,0.1000061-0.6000061,0.3999939-0.6000061s0.6000061,0.1000061,0.7000122,0.3999939l2.7999878,13.7999878
			C382.5,152.6356812,382.2999878,152.9356995,382,152.9356995
			C381.8999939,152.9356995,381.8999939,152.9356995,381.7999878,152.9356995z"/>
	</g>
</g>
<g>
	<g>
		<path class="st15" d="M376,156.7357178c-0.1000061,0-0.2999878-0.1000061-0.3999939-0.2000122L366.5,145.7357178
			c-0.2000122-0.2000122-0.2000122-0.6000061,0.1000061-0.7999878c0.2000122-0.2000122,0.6000061-0.2000122,0.7999878,0.1000061
			L376.5,155.8357239c0.2000122,0.2000122,0.2000122,0.6000061-0.1000061,0.7999878
			C376.2999878,156.7357178,376.2000122,156.7357178,376,156.7357178z"/>
	</g>
</g>
<path class="st16" d="M392.5,169.2357178c0.3999939-0.2000122,0.8999939-0.2000122,1.2999878,0.1000061
	c1.3999939,0.8999939,4.2999878,3.2000122,2.7000122,5c-2,2.2999878-14.3999939,10.7000122-17.3999939,10.3999939
	C376.2999878,184.3357239,381.1000061,175.2357178,392.5,169.2357178z"/>
<path class="st16" d="M396.7000122,174.0357056c0,0,4.7999878,2.5,1.8999939,5.2000122
	c-1.8999939,1.7999878-11.5,8.2999878-14.1000061,8.1000061C382,187.0357056,386.3999939,179.3357239,396.7000122,174.0357056z"/>
<path class="st16" d="M399.6000061,178.2357178c0,0,4.2000122,4.7999878,2.5,6.7000122S391,191.8357239,388.5,191.43573
	C386,191.1357117,389.3999939,183.0357056,399.6000061,178.2357178z"/>
</svg>
