<?xml version="1.0" encoding="utf-8"?>
<!-- Generator: Adobe Illustrator 24.3.0, SVG Export Plug-In . SVG Version: 6.00 Build 0)  -->
<svg version="1.1" id="Camada_1" xmlns="http://www.w3.org/2000/svg" xmlns:xlink="http://www.w3.org/1999/xlink" x="0px" y="0px"
	 viewBox="0 0 475.3999939 432.7058716" style="enable-background:new 0 0 475.3999939 432.7058716;" xml:space="preserve">
<style type="text/css">
	.st0{fill:none;stroke:#0B8360;stroke-width:4;stroke-miterlimit:10;}
	.st1{opacity:0.5;}
	.st2{fill:#21AC80;}
	.st3{fill:#FABE6D;}
	.st4{fill:#E84B4D;}
	.st5{fill:none;stroke:#D9D9D9;stroke-width:9;stroke-miterlimit:10;}
	.st6{fill:#FCCE8C;}
	.st7{fill:#E4EBF0;}
	.st8{fill:#B9C2C8;}
	.st9{fill:#F6C3AC;}
	.st10{fill:#EA6F42;}
	.st11{fill:#DB9880;}
	.st12{fill:#ED8045;}
	.st13{fill:#AD5E4E;}
	.st14{fill:#9B4E41;}
	.st15{fill:#372736;}
	.st16{fill:#3BB18A;}
	.st17{fill:#DDF2EC;}
	.st18{fill:#128260;stroke:#F9BE6D;stroke-width:10;stroke-miterlimit:10;}
	.st19{fill:#106449;}
	.st20{fill:#7F5018;}
	.st21{fill:#FFFFFF;}
</style>
<path class="st0" d="M346.0916138,230.0414734"/>
<path class="st0" d="M300.5715332,269.1253052"/>
<g class="st1">
	<rect x="381.0522156" y="243.1428528" class="st2" width="31.7361145" height="134.8784943"/>
	<rect x="333.7279358" y="289.3869019" class="st3" width="31.7361145" height="88.6344299"/>
	<rect x="286.4036255" y="339.5630188" class="st4" width="31.7361145" height="38.5367126"/>
	<polyline class="st5" points="269.8711853,234.4996796 269.8711853,393.1124268 436.2590942,393.1124268 	"/>
</g>
<g class="st1">
	<g>
		<path class="st3" d="M51.122673,205.6578369l-13.6341896-13.6341858
			c-0.9760666-0.9760742-0.9760666-2.5585785-0.0000038-3.5346527l58.6005173-58.6005096l17.1688309,17.1688385
			l-58.6005096,58.6005096C53.6812553,206.6338959,52.0987396,206.6338959,51.122673,205.6578369z"/>
		<path class="st6" d="M48.5510063,189.1171265l53.3833656-53.3833771l-5.8453217-5.8453217l-53.3833694,53.3833771
			c-3.8573303,3.8573303-3.8574715,10.111618,0,13.9690857l3.199688,3.1996918
			c0.4531631,0.4531555,0.9448318,0.842804,1.4562531,1.1893921
			C44.7570534,197.7871246,45.1468353,192.5213013,48.5510063,189.1171265z"/>
		
			<rect x="102.7353363" y="125.368927" transform="matrix(0.7071068 -0.7071068 0.7071068 0.7071068 -62.5780602 116.5111389)" class="st7" width="13.2340403" height="16.8500996"/>
	</g>
	<g>
		<path class="st8" d="M151.6635895,143.7897186c-31.0385132,0-56.2900314-25.2515182-56.2900314-56.2900314
			c0-31.0407867,25.2515182-56.2923012,56.2900314-56.2923012c31.0407867,0,56.2922974,25.2515144,56.2922974,56.2923012
			C207.9558868,118.5382004,182.7043762,143.7897186,151.6635895,143.7897186z M151.6635895,42.8633308
			c-24.6118088,0-44.634079,20.0245552-44.634079,44.6363564s20.0222702,44.6340714,44.634079,44.6340714
			s44.6363525-20.0222626,44.6363525-44.6340714S176.2753906,42.8633308,151.6635895,42.8633308z"/>
	</g>
	<g>
		<path class="st8" d="M172.8502808,62.1182137c-5.8536072-5.1574669-13.377594-7.9998589-21.186142-7.9998589
			c-7.7217255,0-15.1813965,2.7845154-21.0060577,7.842308l-2.1575165-2.4887047
			c6.4227142-5.5754662,14.6492615-8.6461525,23.1635742-8.6461525c8.6107941,0,16.9080811,3.1317787,23.3629456,8.822998
			L172.8502808,62.1182137z"/>
	</g>
</g>
<g class="st1">
	<g>
		<path class="st9" d="M327.535675,138.4289551l-23.0327148-12.4601669v-5.148819h-19.7252197c0,0.0629959,0,4.949234,0,5.2214203
			c-32.5041199,15.2134018-28.4176941,5.9414139-41.2558136,40.8712692l48.831192,14.096344
			c5.2134094-1.4508057,42.7563782-11.8268433,46.890625-13.0380249
			C337.5997314,165.1010742,331.4878845,138.9571991,327.535675,138.4289551z"/>
		<path class="st10" d="M329.6781921,29.2136021c0.2974243,20.3628674-31.6889954,20.3631344-31.3889465-0.0014038
			C297.9917297,8.8507357,329.9781494,8.8504686,329.6781921,29.2136021z"/>
		<path class="st11" d="M285.0415649,120.1196365l-0.0763855,3.1061859
			c3.692627,5.9869156,15.9680176,5.6339493,19.311554-0.4574738v-3.0628662h-18.990509L285.0415649,120.1196365z"/>
		<path class="st9" d="M326.9806824,88.8813095c0-14.3124313-4.2203979-27.3258171-7.599823-40.9066734
			c-12.9336548-1.7291451-38.7225342-1.729248-51.6567078,0c-3.379425,13.5808563-7.5998535,26.5942421-7.5998535,40.9066734
			c0,4.1904449,16.4342041,34.8890381,32.9074402,36.1554108v0.0605698c0.3477478-0.0274887,0.6937561-0.027504,1.0415344,0
			v-0.0605698C310.5464783,123.7703476,326.9806824,93.0717545,326.9806824,88.8813095z"/>
		<path class="st12" d="M259.2488098,86.592659c-27.9753418-69.6852722,93.3325806-92.7627106,67.6780396,3.143837
			l-10.170929-14.5461121c0,0-37.9249573-6.9405136-45.8569641-24.0439224c0,0-11.7661438,22.2302475-10.7746582,38.5900345"/>
		<path class="st7" d="M339.2437439,167.9709778l-8.6700134-26.2122498
			c-0.8037109-3.45047-8.7390442-5.9659882-11.2641602-7.7799683c-16.0614624,30.5328522-36.3121948,29.7306976-52.3325806,0
			c-2.7501526,1.6087036-12.9872894,4.5687103-13.4582825,7.7335663c-0.246933,0.622467-9.9967804,25.2003326-9.9967804,25.2003326
			l48.831192,14.096344C297.5665283,179.558197,335.1094971,169.1821594,339.2437439,167.9709778z"/>
	</g>
	<path class="st7" d="M331.9003906,157.2059631c-34.5663147,11.3175964-21.4962463,7.1676025-29.5021362,44.1715546
		c65.8908386,15.1424561,67.195282,15.0361633,132.9405823,0c-8.0115051-37.0172729,5.0690308-32.8422394-29.5021362-44.1715546"/>
	<path class="st13" d="M354.7861938,141.0150452v7.7109833l-15.54245,5.7832184
		c15.6298218,21.3365326,44.847168,22.9785767,60.2420044-0.2409668l-11.9279175-5.662735v-8.5543671h-32.771637V141.0150452z"/>
	<path class="st14" d="M354.915802,143.163681l-0.1296082,5.2711792c6.8721619,10.2730713,26.5013428,9.7040863,32.771637-0.7763367
		v-5.1976624h-32.2268066L354.915802,143.163681z"/>
	<path class="st13" d="M399.2362976,61.2630272c-6.2217407-1.3839493-17.7197266-0.4700432-27.7004395-0.0764999v-0.8860245
		c-10.8266296-0.1691513-20.4530945-0.6493912-27.7001038,0.9625244
		c-4.1594849,15.2362022-9.4370728,30.0630608-8.0218506,46.0887337
		c7.8600159,24.3008118,18.0454407,43.261673,35.7221069,43.261673
		c17.2614136,0.4265289,31.2144775-22.0842285,35.6898193-46.3461075
		C408.5671082,89.2810135,402.7890625,75.5402756,399.2362976,61.2630272z"/>
	<path class="st15" d="M371.6795349,71.94133c5.7465515,0,14.4878235-4.0468826,24.6859741-3.7231369
		c10.1981506,0.3237534,10.6837769,40.2260208,10.6837769,40.2260208c23.9584045-85.0567932-94.6611328-93.5400543-70.7395325,0
		c0,0,0.4856262-39.9022675,10.6837769-40.2260208C357.1916809,67.8944473,365.9329529,71.94133,371.6795349,71.94133"/>
	<path class="st8" d="M331.3707886,156.3165131l7.1886597-3.0102844
		c15.3835754,22.2348785,44.5894775,23.1052094,59.8423462-0.0517426l7.7615051,3.4812164
		C388.8524475,186.1104126,348.2006226,185.5576019,331.3707886,156.3165131z"/>
</g>
<g class="st1">
	<path class="st16" d="M174.3015594,245.9541473H51.8739853c-10.6904716,0-19.35746,8.6665649-19.35746,19.3570099v84.3681946
		c0,10.6904907,8.6669884,19.3570557,19.35746,19.3570557h4.5307121v37.0679016l37.0675011-37.0679016h80.829361
		c10.6908875,0,19.3574524-8.6665649,19.3574524-19.3570557v-84.3681946
		C193.6590118,254.6207123,184.9924469,245.9541473,174.3015594,245.9541473z"/>
	<path class="st17" d="M207.7149048,306.8457031h-7.054184v49.8352966c0,10.6904602-8.6665649,19.3570251-19.3574677,19.3570251
		h-72.9499664v3.4973755c0,7.492218,6.0734329,13.5656738,13.5656509,13.5656738h56.6441879l25.9766083,25.9757385v-25.9757385
		h3.1751709c7.4917908,0,13.5656433-6.0734558,13.5656433-13.5656738v-59.124054
		C221.2805481,312.9191284,215.2066956,306.8457031,207.7149048,306.8457031z"/>
</g>
<rect x="123.9639511" y="161.7411804" class="st18" width="222.3735962" height="141.0483856"/>
<g>
	<polygon class="st19" points="138.2310028,309.5993652 129.4493256,309.5993652 129.4493256,167.2007141 341.4303894,167.2007141 
		341.4303894,175.8753967 138.2310028,175.8753967 	"/>
</g>
<rect x="267.0310364" y="282.8215637" class="st7" width="49.0145874" height="7.3403625"/>
<polygon class="st6" points="129.4493256,167.2007141 118.7457275,156.5000305 118.7457275,302.7895508 127.97509,293.5601807 
	130.1463318,291.3889465 "/>
<path class="st20" d="M360.9506531,315.4172058h-251.599823v-20.0558472c0-2.871582,2.3278732-5.1994629,5.1994476-5.1994629
	h241.200943c2.871582,0,5.1994324,2.3278809,5.1994324,5.1994629V315.4172058z"/>
<polygon class="st21" points="271.3441772,212.7514801 261.8397217,203.246933 228.0593262,237.0273438 213.0334473,222.0014648 
	203.5288849,231.5060272 228.0655365,256.0426636 237.5700836,246.5381165 237.5638733,246.5317841 "/>
</svg>
