<?xml version="1.0" encoding="utf-8"?>
<!-- Generator: Adobe Illustrator 24.2.1, SVG Export Plug-In . SVG Version: 6.00 Build 0)  -->
<svg version="1.1" id="Layer_1" xmlns="http://www.w3.org/2000/svg" xmlns:xlink="http://www.w3.org/1999/xlink" x="0px" y="0px"
	 viewBox="0 0 82.4 107.3" style="enable-background:new 0 0 82.4 107.3;" xml:space="preserve">
<style type="text/css">
	.st0{fill:#FFFFFF;}
</style>
<polygon class="st0" points="82.4,82 82.4,10.3 82.4,2.3 68.9,9.5 68.9,56.2 68.9,69.5 68.9,86.5 68.9,87.8 68.9,89.2 "/>
<polygon class="st0" points="34.8,107.3 48.3,100.1 48.3,77.5 48.3,64.1 48.3,24 48.3,20.4 34.8,27.6 34.8,69.8 34.8,83.1 
	34.8,100.2 34.8,101.5 "/>
<polygon class="st0" points="27.2,103.8 27.2,86.7 14.1,77.8 14.1,2 0.6,9.2 0.6,85.6 "/>
<polygon class="st0" points="34.8,72.7 34.8,88.1 61.3,73.9 61.3,58.6 "/>
</svg>
