<?xml version="1.0" encoding="utf-8"?>
<!-- Generator: Adobe Illustrator 24.3.0, SVG Export Plug-In . SVG Version: 6.00 Build 0)  -->
<svg version="1.1" id="Camada_1" xmlns="http://www.w3.org/2000/svg" xmlns:xlink="http://www.w3.org/1999/xlink" x="0px" y="0px"
	 viewBox="0 0 222.82 147.06" style="enable-background:new 0 0 222.82 147.06;" xml:space="preserve">
<style type="text/css">
	.st0{fill:#148260;}
</style>
<g>
	<path class="st0" d="M118.38,60.39V9.81l7.55-0.79v43.83l14.76-1.55v6.75L118.38,60.39z"/>
	<path class="st0" d="M162.51,55.75l-13.24,1.39c-2.78,0.29-4.17-0.91-4.17-3.6V28.98c0-2.69,1.39-4.18,4.17-4.48l13.24-1.39
		c2.73-0.29,4.11,0.91,4.11,3.61v24.57C166.62,53.98,165.24,55.47,162.51,55.75z M159.4,29.6l-7.02,0.74v20.32l7.02-0.74V29.6z"/>
	<path class="st0" d="M189.42,67.99l-12.8,1.35c-2.78,0.29-4.17-0.91-4.17-3.6v-5.23l7.15-0.75v3.9l6.55-0.69v-9.9l-7.58,0.8
		c-2.11,0.22-3.76-0.2-4.95-1.27c-1.19-1.07-1.78-2.59-1.78-4.58v-20c0-1.9,0.53-3.43,1.58-4.6c1.06-1.17,2.51-1.85,4.35-2.04
		c0.44-0.05,0.9-0.07,1.38-0.08c0.48-0.01,0.95,0.01,1.39,0.05l5.6,0.47v-1.2l7.42-0.78v43.67
		C193.57,66.21,192.19,67.7,189.42,67.99z M186.15,27.05l-3.05-0.01c-0.22-0.02-0.47-0.01-0.75,0.02c-0.28,0.03-0.53,0.06-0.75,0.08
		c-1.56,0.16-2.34,1.04-2.34,2.63v15.63c0,1.63,0.8,2.36,2.4,2.19l4.48-0.47V27.05z"/>
	<path class="st0" d="M137.98,110.75c-1.19,1.31-2.85,2.09-4.97,2.31l-15.03,1.58V64.05l7.41-0.78v19.14l7.95-1.89
		c0.4-0.13,0.8-0.24,1.23-0.33c0.42-0.09,0.8-0.15,1.15-0.19c2.69-0.28,4.04,0.9,4.04,3.55v22.25
		C139.76,107.78,139.17,109.43,137.98,110.75z M132.35,86.64l-6.96,0.86v20.19l4.57-0.48c1.59-0.17,2.38-1.06,2.38-2.7V86.64z"/>
	<path class="st0" d="M162.48,109.96l-13.24,1.39c-2.78,0.29-4.17-0.91-4.17-3.6V83.18c0-2.69,1.39-4.18,4.17-4.48l13.24-1.39
		c2.73-0.29,4.11,0.91,4.11,3.61v24.57C166.58,108.18,165.21,109.67,162.48,109.96z M159.37,83.8l-7.02,0.74v20.32l7.02-0.74V83.8z"
		/>
	<path class="st0" d="M189.36,107.14l-13.24,1.39c-2.78,0.29-4.17-0.91-4.17-3.6V80.36c0-2.69,1.39-4.18,4.17-4.48l13.24-1.39
		c2.73-0.29,4.11,0.91,4.11,3.61v24.57C193.47,105.36,192.09,106.85,189.36,107.14z M186.25,80.98l-7.02,0.74v20.32l7.02-0.74V80.98
		z"/>
	<path class="st0" d="M212.73,104.68l-6.49-14.28v14.97l-7.41,0.78V55.55l7.41-0.78v30.39l5.83-13.07l7.75-0.81v0.14l-7.55,15.62
		l8.34,16.67v0.13L212.73,104.68z"/>
	<g>
		<path class="st0" d="M92.44,117.32l-67.06,7.05c-3.25,0.34-5.9-2.02-5.9-5.28V20.2l85-8.93v92.75
			C104.48,110.66,99.08,116.62,92.44,117.32z M25.77,25.82v92.61l66.68-7.39c3.17-0.33,5.75-3.19,5.75-6.36V18.21L25.77,25.82z"/>
	</g>
	<g>
		<path class="st0" d="M19.01,23.07"/>
	</g>
	<path class="st0" d="M73.16,1.8L4.46,9.02c-1.75,0.18-3.18,1.76-3.18,3.51v99.36c0,2.04,1.09,3.85,2.86,4.73l58.78,28.49v-25.46
		l-6.28,0.66v14.48L7.56,111.24V19.83l13.02,6.48l3.24-5.71l-12.13-6.04l61.47-6.46V1.8z"/>
	<g>
		<path class="st0" d="M29.82,122.72l27.99-2.7l-0.55,9.68c0,0,1.66,6.92,0.55,6.89C56.71,136.58,29.82,122.72,29.82,122.72z"/>
	</g>
	<polygon class="st0" points="198.83,34.1 206.24,33.32 206.24,40.69 198.83,41.47 	"/>
	<polygon class="st0" points="52.45,79.6 47.35,75.04 82.69,35.98 87.79,40.54 	"/>
	<polygon class="st0" points="33.43,62.58 38.52,56.95 57.54,73.97 52.45,79.6 	"/>
	<polygon class="st0" points="78.58,57.69 83.67,62.24 61.02,87.27 55.93,82.71 	"/>
	<polygon class="st0" points="75.81,77.9 80.91,82.45 69.6,94.95 64.51,90.39 	"/>
	<polygon class="st0" points="75.2,9.52 75.15,9.51 13.19,16.08 14.68,16.97 77.08,10.28 	"/>
	<polygon class="st0" points="80.14,11.51 16.17,18.3 17.66,19.19 82.05,12.28 	"/>
</g>
<g>
</g>
<g>
</g>
<g>
</g>
<g>
</g>
<g>
</g>
<g>
</g>
</svg>
