<?xml version="1.0" encoding="utf-8"?>
<!-- Generator: Adobe Illustrator 24.3.0, SVG Export Plug-In . SVG Version: 6.00 Build 0)  -->
<svg version="1.1" id="Layer_1" xmlns="http://www.w3.org/2000/svg" xmlns:xlink="http://www.w3.org/1999/xlink" x="0px" y="0px"
	 viewBox="0 0 198.4299927 107.2900009" style="enable-background:new 0 0 198.4299927 107.2900009;" xml:space="preserve">
<style type="text/css">
	.st0{fill:#FFFFFF;}
</style>
<path class="st0" d="M139.8200073,58.5600014V74.590004c0,4.8199997-2.8500061,7.75-7.4900055,7.75
	s-7.4899979-2.9300003-7.4899979-7.75V58.5600014c0-4.8199997,2.8499985-7.75,7.4899979-7.75
	C136.9799957,50.7999992,139.8200073,53.7400017,139.8200073,58.5600014z M129.4900055,58.5999985v15.9400024
	c0,2.2799988,1.0099945,3.5,2.8500061,3.5c1.8399963,0,2.8500061-1.2300034,2.8500061-3.5V58.5999985
	c0-2.2799988-1.0099945-3.5-2.8500061-3.5C130.4900055,55.0999985,129.4900055,56.3199997,129.4900055,58.5999985z"/>
<path class="st0" d="M150.0800018,77.5199966h7.75v4.3799973h-12.3899994V51.2400017h4.6399994V77.5199966z"/>
<path class="st0" d="M175.3000031,55.6199989h-4.9499969v26.2800026h-4.6399994V55.6199989h-4.9499969v-4.3800011h14.5399933
	V55.6199989z"/>
<path class="st0" d="M196.3500061,55.0999985l-8.5399933,22.5100021h8.5399933v4.2900009h-13.5800018v-3.8499985
	l8.5399933-22.5100021h-8.1000061V51.25h13.1399994v3.8499985H196.3500061z"/>
<path class="st0" d="M132.5700073,43.6300011h-4.6399994V12.9700003h4.6399994V43.6300011z"/>
<path class="st0" d="M155.0099945,17.3500004h-4.9499969v26.2800007h-4.6399994V17.3500004h-4.9499969v-4.3800001h14.5399933
	V17.3500004z"/>
<path class="st0" d="M175.5200043,20.2900009v16.0299988c0,4.8199997-2.8500061,7.75-7.4900055,7.75
	s-7.4900055-2.9300003-7.4900055-7.75V20.2900009c0-4.8199997,2.8500061-7.75,7.4900055-7.75
	C172.6699982,12.5299997,175.5200043,15.4700003,175.5200043,20.2900009z M165.1799927,20.3299999v15.9400005
	c0,2.2799988,1.0099945,3.5,2.8500061,3.5c1.8399963,0,2.8500061-1.2299995,2.8500061-3.5V20.3299999
	c0-2.2800007-1.0099945-3.5-2.8500061-3.5C166.1900024,16.8299999,165.1799927,18.0499992,165.1799927,20.3299999z"/>
<path class="st0" d="M192.7899933,43.6300011l-3.6799927-12.9599991h-2.1499939v12.9599991h-4.6399994V12.9700003h6.6999969
	c4.9900055,0,7.7100067,2.7200003,7.7100067,7.750001v2.1900005c0,3.2399998-1.1399994,5.5200005-3.2899933,6.7399998
	l4.25,13.9700012h-4.9000244V43.6300011z M186.9600067,17.2600002v9.1099987h1.8800049
	c2.2299957,0,3.2400055-1.1800003,3.2400055-3.7700005v-1.5799999c0-2.5799999-1.0099945-3.7700005-3.2400055-3.7700005h-1.8800049
	V17.2600002z"/>
<polygon class="st0" points="134.5299988,4.54 129.7799988,4.54 127.9800034,9.29 132.7400055,9.29 "/>
<polygon class="st0" points="82.4100037,81.9899979 82.4100037,10.3199997 82.4100037,2.3 68.9300003,9.4700003 
	68.9300003,56.1599998 68.9300003,69.5299988 68.9300003,86.5 68.9300003,87.8199997 68.9300003,89.1600037 "/>
<polygon class="st0" points="34.7700005,107.2900009 48.25,100.1200027 48.25,77.4899979 48.25,64.1100006 48.25,23.9699993 
	48.25,20.4300003 34.7700005,27.6000004 34.7700005,69.7600021 34.7700005,83.1299973 34.7700005,100.1500015 
	34.7700005,101.4700012 "/>
<polygon class="st0" points="27.1599998,103.8399963 27.1599998,86.7099991 14.0900002,77.75 14.0900002,2 0.61,9.1700001 
	0.61,85.5899963 "/>
<polygon class="st0" points="34.7700005,72.7399979 34.7700005,88.0899963 61.2900009,73.9000015 61.2999992,58.5699997 "/>
<path class="st0" d="M107.6600037,51.4599991v16.9500046l6.8300018-2.0100021V51.4599991H119v30.5299988h-4.5100021V70.9499969
	l-6.8300018,1.9700012v9.0599976h-4.5100021V51.4599991H107.6600037z"/>
<path class="st0" d="M103.0899963,37.7000008V13.3299999h4.5100021v22.1299992l3.4199982,2.7599983l3.4199982-2.7599983V13.3299999
	h4.5100021v24.3700008l-7.9300003,6.170002L103.0899963,37.7000008z"/>
</svg>
