<?xml version="1.0" encoding="utf-8"?>
<!-- Generator: Adobe Illustrator 24.3.0, SVG Export Plug-In . SVG Version: 6.00 Build 0)  -->
<svg version="1.1" id="Layer_1" xmlns="http://www.w3.org/2000/svg" xmlns:xlink="http://www.w3.org/1999/xlink" x="0px" y="0px"
	 viewBox="0 0 50 50" style="enable-background:new 0 0 50 50;" xml:space="preserve">
<style type="text/css">
	.st0{fill:#5A66FF;}
</style>
<g>
	<g>
		<path class="st0" d="M24.9989967,0.000011c0.47192,0.0000001,0.9382839,0.2443466,1.24296,0.7088355l17.701067,26.9380493
			c0.2015991,0.3065872,0.3102341,0.6788692,0.3102341,1.0615253l-0.0000038,17.9248905
			c0,0.9773865-0.6947441,1.770359-1.5521851,1.770359s-1.5521851-0.7929764-1.5521851-1.770359l0.0000038-17.3347721
			L23.7580566,2.8318944c-0.5143623-0.7826004-0.3749084-1.8913802,0.311245-2.4780421
			C24.3482113,0.1152687,24.6751194,0.0000109,24.9989967,0.000011z"/>
	</g>
	<g>
		<path class="st0" d="M25.0010185,0.000011c0.3243809,0,0.6507854,0.1152579,0.9296932,0.3538415
			c0.6861534,0.5866622,0.8256073,1.695442,0.311245,2.4780424L8.8511162,29.2985363L8.8511124,46.6333046
			c0,0.9773865-0.6947441,1.7703629-1.5521846,1.770359c-0.8574405,0-1.5521846-0.7929726-1.5521846-1.770359L5.7467465,28.708416
			c0-0.3826561,0.108633-0.7549381,0.310235-1.0615234L23.7580566,0.7088462
			C24.0627346,0.2443573,24.5290966,0.0000109,25.0010185,0.000011z"/>
	</g>
	<g>
		<polygon class="st0" points="32.9253769,15.2394238 15.1513414,15.2394209 25.3166313,3.6453035 		"/>
	</g>
	<g>
		<path class="st0" d="M37.0738983,30.4418964c3.9274521,0.0000019,6.4270134,2.1622372,6.5811195,2.2982426
			c0.6760483,0.6016464,0.7973137,1.7138824,0.2703171,2.4849586c-0.5239639,0.7687683-1.4935722,0.9082298-2.1701279,0.3158035
			c-0.1798744-0.1544456-3.8405457-3.1914864-9.2256966-0.3181114v13.0068398
			c-0.0000038,0.9773865-0.694746,1.770359-1.552187,1.770359s-1.5521851-0.7929726-1.5521851-1.770359l0.0000038-14.0925674
			c0-0.6465988,0.3087196-1.2413292,0.805397-1.5525246C32.791748,30.9824562,35.1114349,30.4418964,37.0738983,30.4418964z"/>
	</g>
	<g>
		<path class="st0" d="M12.9261065,30.4418945c1.9629679,0,4.2816439,0.5394058,6.8433561,2.142643
			c0.4966774,0.3111954,0.805397,0.9059258,0.805397,1.5525208l-0.0000038,14.0925713
			c0,0.9773827-0.6947441,1.770359-1.5521851,1.770359c-0.857439,0-1.5521832-0.7929764-1.5521832-1.770359l0.0000019-13.0068436
			c-5.4008141-2.881443-9.0670424,0.180954-9.2272129,0.3192635c-0.6795859,0.5832062-1.6522279,0.4391327-2.1711383-0.3319435
			c-0.5189104-0.7722244-0.3996668-1.8717842,0.2728453-2.4699745C6.4990907,32.6041298,8.9996643,30.4418926,12.9261065,30.4418945
			z"/>
	</g>
	<g>
		<path class="st0" d="M24.6811771,30.6251545c3.3271923,0.0000019,5.9454937,1.9075184,6.109705,2.0296917
			c0.7179871,0.5347977,0.9200935,1.6308975,0.4512043,2.4503784c-0.4668674,0.8160248-1.4248562,1.0476952-2.1433487,0.5175095
			c-0.1874542-0.1348534-4.4114971-3.1511497-8.1252213-0.0564766c-0.6896915,0.5762863-1.661829,0.4057045-2.1691189-0.383812
			c-0.5057735-0.7895126-0.3552017-1.8971405,0.3370152-2.4745827
			C21.0154533,31.144968,22.9450741,30.6251545,24.6811771,30.6251545z"/>
	</g>
</g>
</svg>
